<?xml version="1.0" encoding="utf-8"?>
<!-- Generator: Adobe Illustrator 23.0.3, SVG Export Plug-In . SVG Version: 6.00 Build 0)  -->
<svg version="1.1" id="Layer_1" xmlns="http://www.w3.org/2000/svg" xmlns:xlink="http://www.w3.org/1999/xlink" x="0px" y="0px"
	 viewBox="0 0 512 512" style="enable-background:new 0 0 512 512;" xml:space="preserve">
<style type="text/css">
	.st0{fill:#FFFFFF;}
</style>
<path class="st0" d="M333,279.2c25.1,63.5,43.8,128.9,55.9,195.7c17.3-10.5,33.4-23.2,48.1-37.9c38.1-38.1,62.8-86.2,71.4-138.4
	c-37.4-15.5-78.4-24-121.4-24C368.6,274.6,350.6,276.2,333,279.2z"/>
<path class="st0" d="M437.2,75.2c-0.1-0.1-0.1-0.1-0.2-0.2C388.7,26.6,324.4,0,256,0c-26.7,0-52.9,4.1-77.6,11.9
	c39.7,49.8,74.7,102.9,104.6,159C339.4,147,391.3,114.5,437.2,75.2z"/>
<path class="st0" d="M457.3,97.9c-48.2,41.4-102,74.9-160.5,99.9c8.6,17.4,16.8,35,24.5,53c21.5-4.1,43.4-6.2,65.7-6.2
	c43.1,0,85,7.8,124.8,23c0.2-3.8,0.3-7.7,0.3-11.6C512,197.9,492.8,142.8,457.3,97.9z"/>
<path class="st0" d="M98.4,457.8C143.2,492.9,198.2,512,256,512c36.8,0,72.3-7.7,104.9-22.3c-12.2-70.7-31.7-138.9-57.8-203.9
	C212.5,310.5,137.9,374.3,98.4,457.8z"/>
<path class="st0" d="M251.2,272c13.2-5.6,26.6-10.3,40.2-14.2c-7.2-16.5-14.8-32.7-22.9-48.7c-69.2,25.7-141.9,38.7-216.6,38.7
	c-17.4,0-34.6-0.7-51.7-2.1C0.1,249.1,0,252.5,0,256c0,68.4,26.6,132.7,75,181c0,0,0,0,0.1,0c16.7-33.4,38.6-63.7,65.2-90.3
	C172.3,314.7,209.6,289.6,251.2,272z"/>
<path class="st0" d="M254.5,182.1c-30.4-56.3-65.9-109.3-106-158.6C121.5,36,96.6,53.3,75,75c-38.7,38.7-63.5,87.7-71.8,140.8
	c16.1,1.3,32.4,2,48.8,2C123,217.8,191.3,205.2,254.5,182.1z"/>
</svg>
