<?xml version="1.0" encoding="utf-8"?>
<!-- Generator: Adobe Illustrator 23.0.3, SVG Export Plug-In . SVG Version: 6.00 Build 0)  -->
<svg version="1.1" id="Layer_1" xmlns="http://www.w3.org/2000/svg" xmlns:xlink="http://www.w3.org/1999/xlink" x="0px" y="0px"
	 viewBox="0 0 512 512" style="enable-background:new 0 0 512 512;" xml:space="preserve">
<style type="text/css">
	.st0{fill:#FFFFFF;}
</style>
<path class="st0" d="M373.4,0H138.6C62.2,0,0,62.2,0,138.6v234.8C0,449.8,62.2,512,138.6,512h234.8c76.4,0,138.6-62.2,138.6-138.6
	V138.6C512,62.2,449.8,0,373.4,0z M256,396c-77.2,0-140-62.8-140-140s62.8-140,140-140s140,62.8,140,140S333.2,396,256,396z
	 M399.3,149c-22.8,0-41.4-18.6-41.4-41.4s18.6-41.4,41.4-41.4s41.4,18.6,41.4,41.4S422.2,149,399.3,149z"/>
<path class="st0" d="M256,146c-60.6,0-110,49.3-110,110c0,60.6,49.3,110,110,110c60.6,0,110-49.3,110-110
	C366,195.4,316.6,146,256,146z"/>
<path class="st0" d="M399.3,96.3c-6.3,0-11.4,5.1-11.4,11.4s5.1,11.4,11.4,11.4s11.4-5.1,11.4-11.4S405.6,96.3,399.3,96.3z"/>
</svg>
