<?xml version="1.0" encoding="utf-8"?>
<!-- Generator: Adobe Illustrator 23.0.3, SVG Export Plug-In . SVG Version: 6.00 Build 0)  -->
<svg version="1.1" id="Capa_1" xmlns="http://www.w3.org/2000/svg" xmlns:xlink="http://www.w3.org/1999/xlink" x="0px" y="0px"
	 viewBox="0 0 469.3 469.3" style="enable-background:new 0 0 469.3 469.3;" xml:space="preserve">
<style type="text/css">
	.st0{fill:#1C1C1C;}
</style>
<g>
	<g>
		<g>
			<path class="st0" d="M234.7,170.7c-35.3,0-64,28.7-64,64s28.7,64,64,64s64-28.7,64-64S270,170.7,234.7,170.7z"/>
			<path class="st0" d="M234.7,74.7C128,74.7,36.9,141,0,234.7c36.9,93.7,128,160,234.7,160c106.8,0,197.8-66.3,234.7-160
				C432.4,141,341.4,74.7,234.7,74.7z M234.7,341.3c-58.9,0-106.7-47.8-106.7-106.7S175.8,128,234.7,128s106.7,47.8,106.7,106.7
				S293.5,341.3,234.7,341.3z"/>
		</g>
	</g>
</g>
</svg>
