<?xml version="1.0" encoding="utf-8"?>
<!-- Generator: Adobe Illustrator 23.0.3, SVG Export Plug-In . SVG Version: 6.00 Build 0)  -->
<svg version="1.1" id="Layer_1" xmlns="http://www.w3.org/2000/svg" xmlns:xlink="http://www.w3.org/1999/xlink" x="0px" y="0px"
	 viewBox="0 0 2500 1982" style="enable-background:new 0 0 2500 1982;" xml:space="preserve">
<style type="text/css">
	.st0{fill:#FFFFFF;}
</style>
<path class="st0" d="M2499.7,291.6h-98.9c-36.7,0-88.6,52.9-88.6,86.8V1607c0,33.9,51.9,80.2,88.6,80.2h98.9v291.6h-895.6v-291.6
	h187.5V395.7h-9.2l-437.8,1583h-338.9l-432.1-1583h-10.9v1291.4h187.5v291.6H0.3v-291.6h96c39.5,0,91.4-46.3,91.4-80.2V378.4
	c0-33.9-51.9-86.8-91.4-86.8h-96V0h937.6l307.8,1145.6h8.5L1564.9,0h934.8V291.6"/>
</svg>
