<?xml version="1.0" encoding="utf-8"?>
<!-- Generator: Adobe Illustrator 25.0.1, SVG Export Plug-In . SVG Version: 6.00 Build 0)  -->
<svg version="1.1" id="Layer_1" xmlns="http://www.w3.org/2000/svg" xmlns:xlink="http://www.w3.org/1999/xlink" x="0px" y="0px"
	 viewBox="0 0 1000 1000" style="enable-background:new 0 0 1000 1000;" xml:space="preserve">
<style type="text/css">
	.st0{fill:none;}
	.st1{fill:#2E1C56;}
	.st2{fill:url(#SVGID_1_);}
	.st3{fill:#0FA398;}
	.st4{fill:url(#SVGID_2_);}
	.st5{fill:url(#SVGID_3_);}
	.st6{fill:url(#SVGID_4_);}
	.st7{fill:url(#SVGID_5_);}
	.st8{fill:#0ABFDD;}
	.st9{fill:#2B2B70;}
	.st10{fill:url(#SVGID_6_);}
	.st11{fill:#FFFFFF;}
	.st12{fill:url(#SVGID_7_);}
	.st13{fill:url(#SVGID_8_);}
	.st14{fill:url(#SVGID_9_);}
	.st15{fill:url(#SVGID_10_);}
	.st16{fill:url(#SVGID_11_);}
	.st17{fill:url(#SVGID_12_);}
	.st18{opacity:0.6;}
	.st19{fill:url(#SVGID_13_);}
	.st20{fill:url(#SVGID_14_);}
	.st21{opacity:0.2;fill:url(#SVGID_15_);}
	.st22{fill:url(#SVGID_16_);}
	.st23{fill:url(#SVGID_17_);}
	.st24{opacity:0.2;fill:url(#SVGID_18_);}
	.st25{fill:url(#SVGID_19_);}
	.st26{fill:url(#SVGID_20_);}
	.st27{opacity:0.2;fill:url(#SVGID_21_);}
	.st28{fill:url(#SVGID_22_);}
	.st29{fill:url(#SVGID_23_);}
	.st30{opacity:0.2;fill:url(#SVGID_24_);}
	.st31{fill:url(#SVGID_25_);}
	.st32{fill:url(#SVGID_26_);}
	.st33{opacity:0.2;fill:url(#SVGID_27_);}
	.st34{fill:url(#SVGID_28_);}
	.st35{fill:url(#SVGID_29_);}
	.st36{opacity:0.2;fill:url(#SVGID_30_);}
	.st37{opacity:0.7;}
	.st38{fill:url(#SVGID_31_);}
	.st39{fill:#03FFEA;}
	.st40{opacity:0.75;}
	.st41{opacity:0.56;fill:url(#SVGID_32_);}
	.st42{opacity:0.64;fill:url(#SVGID_33_);}
	.st43{opacity:0.7;fill:url(#SVGID_34_);}
	.st44{fill:#2F99CC;}
	.st45{opacity:0.6;fill:url(#SVGID_35_);}
	.st46{opacity:0.6;fill:url(#SVGID_36_);}
	.st47{fill:url(#SVGID_37_);}
	.st48{fill:url(#SVGID_38_);}
	.st49{fill:url(#SVGID_39_);}
	.st50{fill:url(#SVGID_40_);}
	.st51{fill:url(#SVGID_41_);}
	.st52{fill:url(#SVGID_42_);}
	.st53{fill:url(#SVGID_43_);}
	.st54{fill:url(#SVGID_44_);}
	.st55{fill:url(#SVGID_45_);}
	.st56{fill:url(#SVGID_46_);}
	.st57{fill:url(#SVGID_47_);}
	.st58{fill:url(#SVGID_48_);}
	.st59{fill:url(#SVGID_49_);}
	.st60{fill:url(#SVGID_50_);}
	.st61{fill:url(#SVGID_51_);}
	.st62{fill:url(#SVGID_52_);}
	.st63{fill:url(#SVGID_53_);}
	.st64{fill:url(#SVGID_54_);}
	.st65{fill:url(#SVGID_55_);}
	.st66{fill:url(#SVGID_56_);}
	.st67{fill:url(#SVGID_57_);}
	.st68{fill:url(#SVGID_58_);}
	.st69{fill:url(#SVGID_59_);}
	.st70{opacity:0.6;fill:url(#SVGID_60_);}
	.st71{fill:url(#SVGID_61_);}
	.st72{fill:url(#SVGID_62_);}
	.st73{fill:url(#SVGID_63_);}
	.st74{fill:url(#SVGID_64_);}
	.st75{fill:#BF6A6A;}
	.st76{fill:url(#SVGID_65_);}
	.st77{fill:url(#SVGID_66_);}
	.st78{fill:url(#SVGID_67_);}
	.st79{fill:#27297E;}
	.st80{fill:#FFB8B8;}
	.st81{fill:url(#SVGID_68_);}
	.st82{fill:#382213;}
	.st83{fill:url(#SVGID_69_);}
	.st84{fill:url(#SVGID_70_);}
	.st85{fill:url(#SVGID_71_);}
	.st86{fill:url(#SVGID_72_);}
	.st87{fill:url(#SVGID_73_);}
	.st88{fill:url(#SVGID_74_);}
	.st89{fill:url(#SVGID_75_);}
	.st90{opacity:0.22;fill:url(#SVGID_76_);}
	.st91{fill:url(#SVGID_77_);}
	.st92{fill:url(#SVGID_78_);}
	.st93{fill:url(#SVGID_79_);}
	.st94{fill:#249CBC;}
	.st95{fill:url(#SVGID_80_);}
	.st96{display:none;fill:url(#SVGID_81_);}
</style>
<pattern  width="14.4" height="14.4" patternUnits="userSpaceOnUse" id="New_Pattern_Swatch_23" viewBox="0 -14.4 14.4 14.4" style="overflow:visible;">
	<g>
		<rect y="-14.4" class="st0" width="14.4" height="14.4"/>
		<rect x="0" y="-14.4" class="st1" width="14.4" height="14.4"/>
	</g>
</pattern>
<g>
	<linearGradient id="SVGID_1_" gradientUnits="userSpaceOnUse" x1="221.8264" y1="73.6168" x2="905.939" y2="1321.1162">
		<stop  offset="0" style="stop-color:#121249"/>
		<stop  offset="0.1067" style="stop-color:#151555"/>
		<stop  offset="0.3001" style="stop-color:#1F1F75"/>
		<stop  offset="0.5565" style="stop-color:#2D2DA9"/>
		<stop  offset="0.6438" style="stop-color:#3333BC"/>
	</linearGradient>
	<path class="st2" d="M843.7,572.8c-8,20.7-21.5,40.6-40.8,58c-5.1,4.6-10.5,9.2-16.1,13.8c-1.2,1-2.5,2-3.8,3.1
		c-0.6,0.5-1.2,1-1.8,1.4c-0.2,0.2-0.5,0.4-0.7,0.6l0,0c-0.1,0-0.1,0.1-0.2,0.2l-0.6,0.5c-0.3,0.3-0.7,0.6-1,0.8
		c-1.9,1.5-3.8,2.9-5.7,4.4c-0.6,0.5-1.3,1-1.9,1.5c-1.5,1.2-3.1,2.3-4.6,3.5c-4.1,3.1-8.4,6.1-12.6,9.2c-4.3,3-8.6,6.1-13.1,9.1
		c-2.2,1.5-4.5,3-6.7,4.5c-6.8,4.5-13.6,8.9-20.6,13.2c-1.8,1.1-3.6,2.2-5.4,3.3h0c-0.2,0.1-0.4,0.3-0.6,0.4
		c-1.8,1.1-3.6,2.2-5.4,3.2c-1.2,0.7-2.4,1.5-3.6,2.2c-1.1,0.6-2.1,1.3-3.2,1.9c-0.7,0.4-1.4,0.9-2.1,1.3c-1.2,0.7-2.5,1.4-3.7,2.1
		c-1.8,1.1-3.6,2.1-5.4,3.1l-3.4,1.9c-0.1,0-0.2,0.1-0.3,0.1c0,0,0,0,0,0c-5.1,2.9-10.3,5.8-15.5,8.6c-0.5,0.3-1,0.6-1.4,0.8
		c-2.2,1.2-4.5,2.4-6.8,3.6c0,0,0,0,0,0c-8.2,4.4-16.4,8.6-24.6,12.8c-1.2,0.6-2.5,1.3-3.8,1.9c-10.4,5.2-20.8,10.2-31.1,15
		c-10.7,5-21.3,9.8-31.7,14.3c-2.4,1-4.7,2-7.1,3c-2.1,0.9-4.2,1.8-6.3,2.7c-2.1,0.9-4.2,1.8-6.3,2.6c-2.4,1-4.8,2-7.2,3
		c-1.4,0.6-2.8,1.1-4.1,1.7c0,0,0,0,0,0c-0.5,0.2-0.9,0.4-1.4,0.6h0c0,0,0,0,0,0c-1.4-0.2-2.8-0.4-4.2-0.6c-1.3-0.2-2.7-0.4-4-0.6h0
		c-0.1,0-0.2,0-0.3,0c-2.3-0.3-4.6-0.6-6.9-1c-0.7-0.1-1.4-0.2-2.1-0.3c-0.1,0-0.2,0-0.2,0c-5.6-0.8-11.4-1.7-17.2-2.7
		c-7.9-1.3-15.9-2.6-24-4c-49.3-8.5-101.6-19.4-142.5-28.4c-0.4-0.1-0.9-0.2-1.3-0.3c-1.8-0.4-3.6-0.8-5.4-1.2
		c-0.3,0-0.5-0.1-0.8-0.2c-0.3-0.1-0.6-0.1-0.9-0.2c-0.8-0.2-1.7-0.4-2.5-0.5c-0.3-0.1-0.5-0.1-0.8-0.2c-0.3-0.1-0.6-0.1-0.9-0.2
		c-1.5-0.3-3-0.7-4.4-1c-0.3-0.1-0.5-0.1-0.8-0.2c-0.3-0.1-0.6-0.1-0.8-0.2c-0.7-0.2-1.4-0.3-2.1-0.5c-0.1,0-0.3-0.1-0.4-0.1
		c-0.1,0-0.2,0-0.3-0.1v0c-0.4-0.1-0.9-0.2-1.3-0.3c-0.6-0.1-1.1-0.3-1.7-0.4c0,0,0,0,0,0c-0.1,0-0.1,0-0.2,0v0
		c-0.2,0-0.4-0.1-0.6-0.1c-0.4-0.1-0.7-0.2-1.1-0.3l0,0c-0.8-0.2-1.6-0.4-2.4-0.6c-1.6-0.4-3.1-0.7-4.6-1.1c-0.5-0.1-1-0.2-1.6-0.4
		c0,0-0.1,0-0.1,0c-0.3-0.1-0.6-0.1-0.9-0.2c-0.8-0.2-1.6-0.4-2.4-0.6c-3.4-0.8-6.6-1.6-9.6-2.3h0c0,0,0,0,0,0
		c-1.1-0.3-2.2-0.5-3.3-0.8h0c-0.8-0.2-1.6-0.4-2.4-0.6c-6.7-1.6-14.7-3.2-23.6-4.6c-4-0.6-8.2-1.3-12.5-1.9
		c-1.4-0.2-2.7-0.4-4.1-0.6c-0.2,0-0.4-0.1-0.6-0.1c-1.7-0.2-3.5-0.5-5.3-0.7c-1-0.1-2.1-0.3-3.1-0.4l-2.2-0.3l-0.3,0
		c-3.3-0.4-6.6-0.8-10-1.2h0c-1.3-0.2-2.5-0.3-3.8-0.4h0c-0.1,0-0.3,0-0.4,0c-0.2,0-0.5,0-0.7-0.1c-0.9-0.1-1.8-0.2-2.7-0.3h0
		c-1.6-0.2-3.2-0.3-4.9-0.5h0c-0.4,0-0.7-0.1-1.1-0.1c-1.6-0.2-3.3-0.3-4.9-0.5h0c-0.4,0-0.7-0.1-1.1-0.1c-2.6-0.3-5.2-0.5-7.8-0.8
		h0c-0.3,0-0.6-0.1-0.9-0.1c0,0-0.1-0.1-0.1-0.1c-0.2-0.2-0.4-0.4-0.6-0.6v0c-0.1-0.1-0.1-0.2-0.2-0.2h0c-0.4-0.5-0.9-1-1.3-1.5h0
		c-0.2-0.2-0.3-0.4-0.5-0.5c-0.7-0.8-1.4-1.6-2.1-2.4c0,0,0,0,0,0c-1.7-1.9-3.3-3.8-4.9-5.8c-0.5-0.6-1-1.2-1.5-1.9
		c-0.5-0.6-1-1.2-1.5-1.8l0,0v0c-0.1-0.2-0.2-0.3-0.3-0.5c-0.3-0.4-0.6-0.8-0.9-1.2l0,0c-0.4-0.5-0.8-1-1.2-1.5
		c-2.5-3.2-4.9-6.5-7.3-9.8l0,0l0-0.1c-0.3-0.4-0.6-0.9-0.9-1.3l0,0c-1.5-2.1-2.9-4.2-4.3-6.3l0,0c-0.2-0.3-0.4-0.6-0.5-0.8
		c-0.4-0.6-0.8-1.2-1.2-1.8c-0.3-0.4-0.5-0.8-0.8-1.2c0,0,0-0.1-0.1-0.1c-0.1-0.1-0.1-0.2-0.2-0.3c-0.2-0.3-0.4-0.7-0.7-1
		c-1.1-1.7-2.1-3.4-3.2-5.1c-0.1-0.1-0.1-0.2-0.1-0.2c0,0,0,0,0,0v0c-0.1-0.1-0.1-0.2-0.2-0.3c-1.3-2.1-2.5-4.3-3.8-6.4
		c-1.8-3.1-3.4-6.3-5.1-9.5c-0.4-0.8-0.8-1.6-1.2-2.5c-0.5-1-1-2-1.5-3c-1-2-1.9-4-2.8-6v0l-0.6-1.3v0c0-0.1-0.1-0.1-0.1-0.2v0
		c-0.9-2.1-1.8-4.1-2.7-6.2c0-0.1-0.1-0.2-0.1-0.3c-0.1-0.2-0.2-0.4-0.3-0.7c-0.1-0.2-0.2-0.4-0.3-0.6
		c-7.5-18.4-12.9-37.6-15.8-57.4c-0.3-2.1-0.6-4.1-0.8-6.2v0c-0.2-1.2-0.3-2.4-0.4-3.7c0-0.3-0.1-0.7-0.1-1c0-0.1,0-0.3,0-0.4
		c-0.1-1.3-0.3-2.7-0.4-4c0-0.1,0-0.2,0-0.3c-1.4-15-1.6-30.1-0.9-45.1v0c0.1-2.3,0.2-4.6,0.4-6.9c0-0.9,0.1-1.8,0.2-2.7
		c0.3-4,0.6-8,1-12c0.2-2,0.4-3.9,0.6-5.9c0.2-2,0.5-3.9,0.7-5.9c0.1-1,0.3-2.1,0.4-3.1c0.6-4.6,1.3-9.1,2-13.7
		c4.3-26.8,10.6-53.4,17.5-79.6c2.8-10.5,5.7-21,8.9-31.4c3.2-10.5,6.7-21,10.5-31.2c4.8-12.7,10.1-25.1,16.3-37v0
		c2-3.9,4.1-7.8,6.3-11.6v0c0.9-1.5,1.7-2.9,2.6-4.3v0c2.5-4.1,5.1-8.1,7.8-12v0c1.9-2.8,3.9-5.5,6-8.2v0c1.2-1.5,2.4-3.1,3.7-4.6v0
		c6.5-8,13.7-15.5,21.5-22.4c5.9-5.1,12-9.8,18.4-13.9c15.2-9.9,31.7-17.2,49.1-21.9c2.8-0.8,5.7-1.5,8.5-2.2
		c2.8-0.7,5.7-1.2,8.6-1.8c1.2-0.2,2.3-0.4,3.5-0.6c3.5-0.6,7-1.1,10.5-1.4c2.7-0.3,5.4-0.6,8.1-0.8c2.3-0.2,4.7-0.3,7-0.4
		c35.1-1.4,71.2,5.7,104,19.9c1.5,0.7,3.1,1.4,4.6,2.1c0.6,0.3,1.3,0.6,1.9,0.9c1.9,0.9,3.8,1.8,5.7,2.8c1.5,0.7,2.9,1.5,4.4,2.2
		c1.3,0.6,2.5,1.3,3.8,2c11.3,6.2,22.1,13.4,32.2,21.3c6,4.8,11.8,9.8,17.4,14.9c6.6,6.1,13,12.4,19.4,18.8
		c3.6,3.6,7.1,7.2,10.6,10.9c1.8,1.8,3.5,3.7,5.3,5.5c3,3.2,6,6.3,9.1,9.4c1.2,1.3,2.5,2.6,3.7,3.9c1.1,1.1,2.2,2.2,3.3,3.3
		c2.6,2.7,5.2,5.3,7.9,7.9c0.7,0.7,1.4,1.4,2.1,2c2.1,2.1,4.3,4.2,6.5,6.3c2.4,2.3,4.9,4.6,7.4,6.9c1.9,1.7,3.8,3.4,5.7,5
		c0.9,0.8,1.7,1.5,2.6,2.2c0.5,0.4,1,0.9,1.6,1.3c0.8,0.7,1.6,1.4,2.4,2c0.9,0.8,1.9,1.5,2.8,2.3c1,0.8,2,1.6,3,2.4
		c4.2,3.2,8.4,6.3,12.8,9.2c5.7,3.8,11.5,7.3,17.7,10.5c0.2,0.1,0.4,0.2,0.7,0.3c2.6,1.4,5.3,2.7,8,3.9c2.3,1.1,4.6,2.1,7,3
		c0.1,0,0.2,0.1,0.2,0.1c0.9,0.4,1.8,0.7,2.6,1.1c2.8,1.1,5.7,2.2,8.6,3.2c7.9,2.8,16,5.3,24.2,7.5c5.1,1.4,10.2,2.7,15.3,4.1
		c1.5,0.4,3.1,0.8,4.6,1.2l1.9,0.5c1.9,0.5,3.8,0.9,5.7,1.4l1.1,0.3c1.1,0.3,2.2,0.5,3.3,0.8c1.3,0.3,2.5,0.6,3.8,1
		c2.1,0.5,4.2,1,6.2,1.6c1.5,0.4,3.1,0.8,4.6,1.2c0.6,0.2,1.3,0.3,1.9,0.5c1.9,0.5,3.8,1,5.7,1.5c1.5,0.4,2.9,0.8,4.4,1.2
		c1.3,0.4,2.5,0.7,3.8,1.1c2.4,0.7,4.8,1.4,7.2,2.2c6.4,2,12.5,4.3,18.2,7c0.1,0.1,0.2,0.1,0.4,0.2c4.4,2,8.6,4.1,12.6,6.4
		c2.1,1.2,4.1,2.4,6.1,3.7c0.7,0.4,1.3,0.9,2,1.3c0.5,0.3,1,0.7,1.5,1c0.5,0.3,1,0.7,1.5,1c2.3,1.6,4.5,3.2,6.6,4.9
		c0.8,0.6,1.6,1.2,2.4,1.9c0.2,0.1,0.3,0.3,0.5,0.4c0.9,0.7,1.8,1.5,2.6,2.2c1.1,0.9,2.1,1.9,3.2,2.8c1,0.9,1.9,1.8,2.8,2.7
		c0.9,0.8,1.7,1.7,2.5,2.6c0.2,0.2,0.4,0.4,0.5,0.6c0.6,0.6,1.2,1.3,1.8,1.9c0.3,0.3,0.5,0.6,0.8,0.9c0.8,0.9,1.6,1.8,2.3,2.7
		c0.7,0.8,1.4,1.6,2,2.4c0.5,0.6,1,1.2,1.5,1.9c0.5,0.7,1,1.3,1.5,2c0.6,0.7,1.1,1.5,1.6,2.2c0.3,0.4,0.5,0.7,0.8,1.1
		c0.6,0.9,1.2,1.8,1.8,2.7c0.4,0.7,0.9,1.4,1.3,2h0C854.4,492.5,858.7,534.1,843.7,572.8z"/>
	<path class="st0" d="M225.9,742.8c-2.2-0.3-4.4-0.5-6.6-0.8c-1.1-0.1-2.2-0.3-3.4-0.4 M196.9,733.5c0.7-0.3,1.4-0.7,2.1-1
		c2.9-1.4,6-2.9,9.1-4.5c1.2-0.6,2.4-1.2,3.6-1.8l0,0c0.4-0.2,0.8-0.4,1.2-0.6c0,0,0.1,0,0.1-0.1c0.3-0.1,0.5-0.3,0.8-0.4
		c0,0,0,0,0,0c0,0,0.1,0,0.1-0.1c0.2-0.1,0.5-0.3,0.8-0.4c0.1,0,0.1-0.1,0.2-0.1c0.4-0.2,0.8-0.4,1.3-0.6c0.9-0.5,1.8-1,2.7-1.4
		c0.4-0.2,0.8-0.4,1.2-0.6c0.1-0.1,0.2-0.1,0.3-0.2c0.8-0.4,1.7-0.9,2.5-1.3c0.1-0.1,0.3-0.2,0.4-0.2c0.1,0,0.2-0.1,0.2-0.1
		c5.6-3,11.4-6.1,17.3-9.4c12.8-7,26.4-14.5,40-21.9c0.1,0,0.1-0.1,0.2-0.1c0.1-0.1,0.3-0.2,0.4-0.2c1.8-0.9,3.5-1.9,5.3-2.8
		c26.8-14.4,53.8-28,76.3-36h0.1c0.5-0.2,0.9-0.4,1.4-0.5c0.3-0.1,0.5-0.2,0.8-0.3c0.7-0.2,1.3-0.5,2-0.7h0.1
		c9.3-3.1,17.7-5.1,25-5.7c1.9-0.2,3.7-0.2,5.6-0.3c0,0,0,0,0,0c2.3,0,4.5,0,6.9,0.1c0,0,0,0,0,0c5.8,0.3,11.8,1,17.9,2.1
		c6.5,1.2,13.1,2.7,19.7,4.7h0.1c0.1,0,0.3,0.1,0.4,0.1c4.1,1.2,8.2,2.5,12.3,3.9c31.5,10.7,62.8,27,87.4,37.8
		c1.3,0.6,2.6,1.2,3.9,1.7c1.5,0.6,2.9,1.2,4.3,1.8h0c1.3,0.5,2.5,1,3.8,1.5c3.6,1.4,7,2.6,10.2,3.6c1.7,0.5,3.3,1,5,1.4
		c6,1.6,11.8,2.7,17.5,3.5c25.3,3.4,47,0,71.8,4.9c2.9,0.6,5.9,1.3,8.9,2.1c2.1,0.6,4.4,1.3,6.8,2.2c2,0.7,4,1.5,6.1,2.4
		c0.1,0,0.2,0.1,0.3,0.1h0c4.5,1.8,9.3,4,14.3,6.4c-0.7,0.4-1.4,0.9-2.1,1.3c-1.2,0.7-2.5,1.4-3.7,2.1c-1.8,1-3.6,2.1-5.4,3.1
		c-1.2,0.7-2.5,1.4-3.7,2.1c0,0,0,0,0,0c-5.1,2.9-10.3,5.8-15.5,8.6c-0.5,0.3-1,0.5-1.4,0.8c-2.2,1.2-4.5,2.4-6.8,3.6
		c-8.2,4.4-16.4,8.6-24.6,12.8c-1.2,0.6-2.5,1.3-3.8,1.9c-10.4,5.2-20.8,10.2-31.1,15c-10.7,5-21.3,9.8-31.7,14.3
		c-6.7,2.9-13.2,5.7-19.7,8.3c-4.3,1.8-8.6,3.5-12.8,5.2c0,0,0,0,0,0c-9.3-1.3-19.1-2.7-29.1-4.3c-2-0.3-3.9-0.6-5.9-0.9
		c-7.9-1.3-15.9-2.6-24-4c-47.3-8.2-97.3-18.5-137.5-27.3c-0.1,0-0.1,0-0.2,0c-0.8-0.2-1.6-0.3-2.4-0.5c-0.3-0.1-0.5-0.1-0.8-0.2
		c-1.8-0.4-3.5-0.8-5.2-1.2c-0.3,0-0.5-0.1-0.8-0.2c-1.1-0.2-2.2-0.5-3.4-0.8h0c-0.3-0.1-0.5-0.1-0.8-0.2h0
		c-1.4-0.3-2.8-0.6-4.1-0.9c-0.4-0.1-0.8-0.2-1.2-0.3c-0.3-0.1-0.5-0.1-0.8-0.2c-1.1-0.3-2.2-0.5-3.3-0.8h0c-0.3,0-0.5-0.1-0.8-0.2
		h0c-0.9-0.2-1.9-0.4-2.8-0.6c0,0,0,0,0,0c-0.4-0.1-0.9-0.2-1.3-0.3c-0.6-0.1-1.1-0.3-1.7-0.4c0,0,0,0,0,0c-0.3-0.1-0.6-0.1-0.8-0.2
		c-1.2-0.3-2.4-0.6-3.6-0.8c-0.9-0.2-1.8-0.4-2.7-0.6c-0.6-0.1-1.1-0.3-1.7-0.4c-0.6-0.1-1.2-0.3-1.7-0.4c-1.8-0.4-3.6-0.8-5.2-1.2
		h0c-0.6-0.1-1.1-0.3-1.7-0.4h0c-2.1-0.5-4.2-1-6.1-1.5h0c-1.2-0.3-2.3-0.6-3.3-0.8c-0.8-0.2-1.6-0.4-2.4-0.6
		c-11.9-2.9-27.9-5.5-46.1-7.9c0,0,0,0,0,0"/>
	<path class="st0" d="M629.6,723.9c-0.9-0.2-1.8-0.3-2.7-0.5c-12.8-2.4-25.6-4.7-38.3-7c-5.5-1-11-1.9-16.5-2.9
		c-0.5-0.1-0.9-0.2-1.4-0.2c0,0,0,0,0,0c-1.7-0.3-3.4-0.6-5.1-0.9c-4.5-0.8-9-1.5-13.5-2.3c-6.2-1-12.3-2-18.3-3
		c-1.1-0.2-2.3-0.4-3.4-0.5c-10.8-1.7-21.3-3.3-31.5-4.7c-12.9-1.8-25.3-3.5-36.9-4.8c-0.1,0-0.1,0-0.2,0
		c-6.7-0.8-13.6-1.3-20.6-1.7c-41.2-2.2-86.8,2.1-130.6,9.1c0,0,0,0,0,0c-1,0.2-2,0.3-3,0.5c0,0,0,0,0,0c-0.8,0.1-1.6,0.3-2.4,0.4h0
		c-0.4,0.1-0.8,0.1-1.3,0.2c-0.3,0.1-0.6,0.1-0.9,0.2h0c-1.2,0.2-2.3,0.4-3.5,0.6c-0.1,0-0.2,0-0.3,0c-0.1,0-0.2,0-0.3,0h0
		c-0.7,0.1-1.4,0.2-2.1,0.4c-1.6,0.3-3.1,0.6-4.7,0.8c-1.1,0.2-2.1,0.4-3.1,0.6c-0.6,0.1-1.2,0.2-1.8,0.3c-0.2,0-0.3,0-0.5,0.1
		c-0.1,0-0.1,0-0.2,0c-18.1,3.3-35.7,7.1-52.3,11c-3.3,0.8-6.6,1.5-9.8,2.3c-0.1,0-0.2,0-0.2,0.1c-0.5,0.1-1.1,0.3-1.6,0.4
		c-0.8,0.2-1.5,0.4-2.3,0.6c-0.1,0-0.2,0-0.3,0.1c-1.2,0.3-2.4,0.6-3.6,0.9c-0.4,0.1-0.9,0.2-1.3,0.3c-0.8,0.2-1.7,0.4-2.5,0.6
		l-0.2,0c0,0,0,0,0,0c-0.4,0.1-0.9,0.2-1.3,0.3c-0.1,0-0.2,0-0.2,0.1c0,0,0,0,0,0c-0.7,0.2-1.4,0.3-2.1,0.5c0,0,0,0,0,0
		c0.9,0.1,1.8,0.2,2.7,0.3c0.2,0,0.5,0,0.7,0.1c0.1,0,0.3,0,0.4,0h0c1.1,0.1,2.2,0.3,3.3,0.4c0.2,0,0.3,0,0.5,0.1h0
		c3.4,0.4,6.7,0.8,10,1.2c0.1,0,0.2,0,0.3,0l5.4,0.7c1.8,0.2,3.5,0.5,5.3,0.7c0.2,0,0.4,0.1,0.6,0.1c0.2,0,0.5,0.1,0.7,0.1
		c0.5,0.1,0.9,0.1,1.4,0.2c0.7,0.1,1.4,0.2,2.1,0.3c4.3,0.6,8.5,1.2,12.5,1.9c1.7,0.3,3.3,0.6,4.9,0.8c0.8,0.1,1.6,0.3,2.4,0.4
		c0.8,0.1,1.6,0.3,2.3,0.4c4.1,0.8,7.9,1.6,11.4,2.4c0.4,0.1,0.9,0.2,1.3,0.3c0.4,0.1,0.8,0.2,1.3,0.3c0.8,0.2,1.6,0.4,2.4,0.6
		c1.1,0.3,2.2,0.5,3.3,0.8h0c3,0.7,6.2,1.5,9.6,2.3c0.8,0.2,1.6,0.4,2.4,0.6h0c0.3,0.1,0.6,0.1,0.9,0.2c0,0,0.1,0,0.1,0
		c0.5,0.1,1,0.2,1.6,0.4l0,0h0c1.5,0.3,3,0.7,4.6,1.1c0.8,0.2,1.6,0.4,2.4,0.6l0,0c0.4,0.1,0.7,0.2,1.1,0.3c0.2,0,0.4,0.1,0.6,0.1h0
		c0,0,0,0,0,0c0,0,0.1,0,0.2,0c0,0,0,0,0,0c0.6,0.1,1.1,0.3,1.7,0.4c0.4,0.1,0.9,0.2,1.3,0.3c0.1,0,0.2,0,0.3,0.1
		c0.1,0,0.3,0.1,0.4,0.1c0.7,0.2,1.4,0.3,2.1,0.5c0.3,0.1,0.5,0.1,0.8,0.2h0c0.3,0.1,0.5,0.1,0.8,0.2c1.5,0.3,2.9,0.7,4.4,1
		c0.3,0.1,0.6,0.1,0.9,0.2c0.3,0.1,0.5,0.1,0.8,0.2h0c0.8,0.2,1.6,0.4,2.5,0.6c0.3,0.1,0.6,0.1,0.9,0.2c0.3,0.1,0.5,0.1,0.8,0.2
		c1.8,0.4,3.5,0.8,5.4,1.2l1.4,0.3c6.4,1.4,13.1,2.9,20,4.4c0,0,0,0,0,0c5.5,1.2,11.2,2.4,16.9,3.6c0.3,0.1,0.6,0.2,1,0.2
		c5.5,1.2,11,2.3,16.7,3.5c3,0.6,6,1.2,9,1.8c0.2,0,0.4,0.1,0.6,0.1c1.7,0.3,3.4,0.7,5.1,1c5.7,1.2,11.5,2.3,17.3,3.4
		c6.2,1.2,12.4,2.4,18.6,3.6c12.5,2.4,25,4.7,37.3,6.8c8.1,1.4,16.1,2.7,24,4c1.5,0.2,2.9,0.5,4.4,0.7c1.4,0.2,2.9,0.5,4.3,0.7
		c1.6,0.3,3.1,0.5,4.6,0.7c1.4,0.2,2.7,0.4,4.1,0.6c0.1,0,0.1,0,0.2,0c0.2,0,0.3,0,0.4,0.1c0.1,0,0.2,0,0.3,0c0.4,0,0.8,0.1,1.1,0.1
		c1.2,0.2,2.4,0.3,3.5,0.5c0.1,0,0.1,0,0.2,0c1.2,0.2,2.4,0.4,3.7,0.5c2.7,0.4,5.4,0.8,8.1,1.1l0,0h0c0,0,0,0,0,0l0,0c0,0,0,0,0,0
		c0.2-0.1,0.5-0.2,0.7-0.3c0.2-0.1,0.5-0.2,0.7-0.3c0,0,0,0,0,0c3.8-1.5,7.5-3,11.4-4.6c2.1-0.9,4.2-1.7,6.3-2.6
		c2.1-0.9,4.2-1.8,6.3-2.7c1.2-0.5,2.4-1,3.5-1.5c1.2-0.5,2.4-1,3.6-1.5c10.4-4.5,21-9.3,31.7-14.3c10.3-4.8,20.7-9.8,31.1-15
		c1.2-0.6,2.5-1.2,3.8-1.9c4.1-2.1,8.2-4.2,12.3-6.3c4.1-2.1,8.2-4.3,12.3-6.5C647.8,727.3,638.7,725.6,629.6,723.9z"/>
	<path class="st0" d="M225.9,727.8c0.1,0,0.2,0,0.3,0c0.8,0.1,1.5,0.2,2.2,0.3c1.1,0.1,2.1,0.3,3.1,0.4"/>
	<g>
		<path class="st3" d="M225.9,727.8L225.9,727.8c-3.3-0.4-6.6-0.8-10-1.2h0c-1.3-0.2-2.5-0.3-3.8-0.4h0c-0.1,0-0.3,0-0.4,0
			c-0.2,0-0.5,0-0.7-0.1c-0.9-0.1-1.8-0.2-2.7-0.3c-1.6-0.2-3.3-0.3-4.9-0.5h0c-0.4,0-0.7-0.1-1.1-0.1c-1.6-0.2-3.3-0.3-4.9-0.5h0
			c-0.4,0-0.7-0.1-1.1-0.1c-2.6-0.3-5.2-0.5-7.8-0.8h0c-0.3,0-0.6-0.1-0.9-0.1v0c0,0-0.1-0.1-0.1-0.1c-0.2-0.2-0.4-0.4-0.5-0.6v0
			c-0.1-0.1-0.2-0.2-0.2-0.2h0c-0.4-0.5-0.9-1-1.3-1.5c-0.2-0.2-0.3-0.4-0.5-0.5h0c-0.7-0.8-1.4-1.6-2.1-2.4c0,0,0,0,0,0
			c-1.7-1.9-3.3-3.8-4.9-5.8c-0.5-0.6-1-1.2-1.5-1.9c-0.5-0.6-1-1.2-1.5-1.8v0c-0.5-0.5-0.9-1.1-1.3-1.6l0,0c-0.4-0.5-0.8-1-1.2-1.5
			c-2.5-3.2-4.9-6.5-7.3-9.8l0,0c-0.3-0.5-0.7-0.9-1-1.4l0,0c-1.5-2.1-2.9-4.2-4.3-6.3l0,0c-0.2-0.3-0.4-0.6-0.5-0.8
			c-0.4-0.6-0.8-1.2-1.2-1.8c-0.3-0.4-0.6-0.9-0.8-1.3c-0.1-0.1-0.1-0.2-0.2-0.3c-0.1-0.1-0.1-0.2-0.2-0.3c-0.2-0.2-0.3-0.5-0.5-0.7
			c-1.1-1.7-2.1-3.4-3.2-5.1c-0.1-0.1-0.1-0.2-0.1-0.2c0,0,0,0,0,0v0l0.7-2h0l9.7-26.3h0l0.2-0.6l0-0.1l0-0.1l10.7-29.1v0l6.3-17.2
			v0l1-2.6l1.6,4.7v0l7.8,22.6v0l6,17.3v0l1.5,4.4l0,0.1l0.1,0.2l0.1,0.4h0l3.5,10.1v0l5.3,15.3l7.3,21.1l4.1,11.9l2.8,8.2l0.1,0.4
			v0l1.2,3.5l0.2,0.6l0.6,1.9l0.8,2.2l0.3,0.8h0l0.5,1.4v0c0,0,0,0,0,0l0.2,0.6l0,0.1h0l0.2,0.7h0L225.9,727.8z"/>
		<linearGradient id="SVGID_2_" gradientUnits="userSpaceOnUse" x1="185.4317" y1="609.1089" x2="183.3722" y2="703.8475">
			<stop  offset="0" style="stop-color:#FFFFFF"/>
			<stop  offset="1" style="stop-color:#FFFFFF;stop-opacity:0"/>
		</linearGradient>
		<path class="st4" d="M206.7,700.8l-23.9,15.4v2.1c-1.7-1.9-3.3-3.9-5-5.8c-1-1.2-2-2.5-3-3.7l4.2,2.7v-6.7l-14-9
			c-1.8-2.6-3.6-5.1-5.4-7.8c0.2,0,0.5,0.1,0.6,0.3l18.7,12v-6.7l-18-11.4c-0.9-0.6-1.2-1.7-0.6-2.6c0.6-0.9,1.7-1.2,2.6-0.6
			l11.2,7.1l4.4,2.8l0.3,0.2v-6.7l-4.7-2.9l-10.5-6.5c-0.9-0.6-1.2-1.7-0.6-2.6s1.7-1.2,2.6-0.6l8.4,5.3l4.7,2.9v-6.8l-4.7-2.9
			l-7.6-4.7c-0.9-0.6-1.2-1.7-0.6-2.6c0.6-0.9,1.7-1.2,2.6-0.6l5.7,3.5l4.7,2.9v-6.8l-4.7-2.8l-4.8-2.8c-0.9-0.5-1.2-1.7-0.7-2.6
			c0.5-0.9,1.7-1.2,2.6-0.7l2.9,1.7l4.7,2.8v-6.8l-4.7-2.6l-2-1.1c-0.9-0.5-1.2-1.7-0.7-2.6c0.5-0.9,1.7-1.2,2.6-0.8l0.1,0.1
			l4.7,2.6v-6.8l-3.8-1.8c-0.5-0.2-0.8-0.6-0.9-1c-0.2-0.4-0.2-0.9,0-1.4c0,0,0-0.1,0-0.1c0.4-0.9,1.6-1.4,2.5-0.9l2.1,1v-6.9
			c0-1,0.7-1.7,1.6-1.9c0.1,0,0.2,0,0.3,0c1.1,0,1.9,0.9,1.9,1.9v7l0.4-0.2l2-1c0.9-0.5,2.1-0.1,2.5,0.9c0.5,0.9,0.1,2.1-0.9,2.5
			l-3.6,1.8l-0.4,0.2v6.8l0.4-0.2l4.7-2.6c0.9-0.5,2.1-0.2,2.6,0.8c0.5,0.9,0.2,2.1-0.7,2.6l-6.5,3.6l-0.4,0.2v6.8l0.4-0.2l7.5-4.4
			c0.1-0.1,0.2-0.1,0.3-0.1c0.8-0.3,1.8,0,2.3,0.8c0.5,0.9,0.2,2.1-0.7,2.6l-1.6,0.9l-7.8,4.6l-0.4,0.2v6.8l0.4-0.2l7.8-4.8l2.4-1.5
			c0.9-0.6,2.1-0.3,2.6,0.6c0.6,0.9,0.3,2.1-0.6,2.6l-4.4,2.7l-7.8,4.8l-0.4,0.3v6.8l0.4-0.3l7.8-4.9l5.2-3.3
			c0.2-0.1,0.5-0.2,0.8-0.3c0.7-0.1,1.5,0.2,1.9,0.9c0.6,0.9,0.3,2.1-0.6,2.6l-1.3,0.8l-6,3.7l-7.8,4.9l-0.4,0.3v6.7l0.6-0.4
			l7.6-4.8l6-3.8l2-1.3c0.9-0.6,2.1-0.3,2.6,0.6c0.6,0.9,0.3,2.1-0.6,2.6l-4.1,2.6l-6,3.8l-0.5,0.3l-7.7,4.9v6.7l18.1-11.6l0.9-0.6
			c0.1-0.1,0.2-0.2,0.4-0.2c0.8-0.3,1.8,0,2.2,0.8c0.6,0.9,0.3,2.1-0.6,2.6L182.8,705v6.7l4.2-2.7l0,0l17.6-11.4
			c0.9-0.6,2.1-0.3,2.6,0.6c0.2,0.3,0.3,0.7,0.3,1.1C207.5,699.9,207.2,700.5,206.7,700.8z"/>
		<linearGradient id="SVGID_3_" gradientUnits="userSpaceOnUse" x1="198.1234" y1="703.5412" x2="197.7377" y2="721.2817">
			<stop  offset="0" style="stop-color:#FFFFFF"/>
			<stop  offset="1" style="stop-color:#FFFFFF;stop-opacity:0"/>
		</linearGradient>
		<path class="st5" d="M209.5,710.2L196,719l0,0l-7.4,4.8c-0.3,0-0.6-0.1-0.9-0.1c-0.2-0.2-0.4-0.5-0.6-0.7c-0.5-0.6-1-1.1-1.6-1.7
			l22-14.3c0.9-0.6,2.1-0.3,2.6,0.6C210.6,708.4,210.4,709.6,209.5,710.2z"/>
		<linearGradient id="SVGID_4_" gradientUnits="userSpaceOnUse" x1="205.4228" y1="714.2954" x2="205.2148" y2="723.8612">
			<stop  offset="0" style="stop-color:#FFFFFF"/>
			<stop  offset="1" style="stop-color:#FFFFFF;stop-opacity:0"/>
		</linearGradient>
		<path class="st6" d="M212.3,719.5l-8.9,5.8c-2-0.2-4-0.4-6-0.6l12.8-8.4c0.9-0.6,2.1-0.3,2.6,0.6
			C213.4,717.7,213.2,718.9,212.3,719.5z"/>
		<linearGradient id="SVGID_5_" gradientUnits="userSpaceOnUse" x1="214.0257" y1="725.0882" x2="213.9969" y2="726.412">
			<stop  offset="0" style="stop-color:#FFFFFF"/>
			<stop  offset="1" style="stop-color:#FFFFFF;stop-opacity:0"/>
		</linearGradient>
		<path class="st7" d="M215.9,726.7c-1.3-0.1-2.5-0.3-3.8-0.4l0.9-0.6c0.9-0.6,2.1-0.3,2.6,0.5C215.8,726.3,215.8,726.5,215.9,726.7
			z"/>
	</g>
	<path class="st8" d="M283.5,737.8c-1.2-0.3-2.3-0.6-3.3-0.8c0.5-0.5,1.3-0.5,1.8-0.2L283.5,737.8z"/>
	<path class="st9" d="M295.8,741.7c-1.2-0.3-2.4-0.6-3.6-0.8c-2.1-0.5-4.2-1-6.2-1.4c-4.7-1.1-9.1-2.1-13.1-3.1h0
		c-1.2-0.3-2.3-0.6-3.3-0.8c-0.8-0.2-1.6-0.4-2.4-0.6c-11.8-2.9-27.9-5.5-46.1-7.9l2.4-8.9l3.8-14.2h20.3l-18.1-6.4l0.9-3.4
		l4.4-16.4l21.8-81.3l16.3,60.4l3.3,12.2l8.2,30.2l1.1,4.2v0l0.5,1.9l1.2,4.5v0l1.2,4.2v0l0.3,1.2l3,11.2l0.5,1.9l0.8,3.1l1.2,4.6
		l0.8,3.1L295.8,741.7z"/>
	<g>
		<radialGradient id="SVGID_6_" cx="167.5692" cy="513.809" r="7.2519" gradientUnits="userSpaceOnUse">
			<stop  offset="0" style="stop-color:#1EC69B"/>
			<stop  offset="0.5555" style="stop-color:#20BE9B;stop-opacity:0.4445"/>
			<stop  offset="1" style="stop-color:#22B49B;stop-opacity:0"/>
		</radialGradient>
		<circle class="st10" cx="167.6" cy="513.8" r="7.3"/>
		<circle class="st11" cx="167.6" cy="513.7" r="3.3"/>
	</g>
	<g>
		<radialGradient id="SVGID_7_" cx="263.9976" cy="483.6194" r="3.5569" gradientUnits="userSpaceOnUse">
			<stop  offset="0" style="stop-color:#1EC69B"/>
			<stop  offset="0.5555" style="stop-color:#20BE9B;stop-opacity:0.4445"/>
			<stop  offset="1" style="stop-color:#22B49B;stop-opacity:0"/>
		</radialGradient>
		<circle class="st12" cx="264" cy="483.6" r="3.6"/>
		<circle class="st11" cx="264" cy="483.6" r="1.6"/>
	</g>
	<g>
		<radialGradient id="SVGID_8_" cx="254.4706" cy="555.0875" r="3.5569" gradientUnits="userSpaceOnUse">
			<stop  offset="0" style="stop-color:#1EC69B"/>
			<stop  offset="0.5555" style="stop-color:#20BE9B;stop-opacity:0.4445"/>
			<stop  offset="1" style="stop-color:#22B49B;stop-opacity:0"/>
		</radialGradient>
		<circle class="st13" cx="254.5" cy="555.1" r="3.6"/>
		<circle class="st11" cx="254.5" cy="555" r="1.6"/>
	</g>
	<g>
		<radialGradient id="SVGID_9_" cx="679.6847" cy="524.6854" r="3.5569" gradientUnits="userSpaceOnUse">
			<stop  offset="0" style="stop-color:#1EC69B"/>
			<stop  offset="0.5555" style="stop-color:#20BE9B;stop-opacity:0.4445"/>
			<stop  offset="1" style="stop-color:#22B49B;stop-opacity:0"/>
		</radialGradient>
		<circle class="st14" cx="679.7" cy="524.7" r="3.6"/>
		<circle class="st11" cx="679.7" cy="524.6" r="1.6"/>
	</g>
	<g>
		<radialGradient id="SVGID_10_" cx="513.1437" cy="502.6203" r="3.5569" gradientUnits="userSpaceOnUse">
			<stop  offset="0" style="stop-color:#1EC69B"/>
			<stop  offset="0.5555" style="stop-color:#20BE9B;stop-opacity:0.4445"/>
			<stop  offset="1" style="stop-color:#22B49B;stop-opacity:0"/>
		</radialGradient>
		<circle class="st15" cx="513.1" cy="502.6" r="3.6"/>
		<circle class="st11" cx="513.2" cy="502.6" r="1.6"/>
	</g>
	<g>
		<radialGradient id="SVGID_11_" cx="628.6946" cy="435.0819" r="6.0217" gradientUnits="userSpaceOnUse">
			<stop  offset="0" style="stop-color:#1EC69B"/>
			<stop  offset="0.5555" style="stop-color:#20BE9B;stop-opacity:0.4445"/>
			<stop  offset="1" style="stop-color:#22B49B;stop-opacity:0"/>
		</radialGradient>
		<circle class="st16" cx="628.7" cy="435.1" r="6"/>
		<circle class="st11" cx="628.7" cy="435" r="2.7"/>
	</g>
	<g>
		<radialGradient id="SVGID_12_" cx="804.1005" cy="536.1717" r="3.5569" gradientUnits="userSpaceOnUse">
			<stop  offset="0" style="stop-color:#1EC69B"/>
			<stop  offset="0.5555" style="stop-color:#20BE9B;stop-opacity:0.4445"/>
			<stop  offset="1" style="stop-color:#22B49B;stop-opacity:0"/>
		</radialGradient>
		<circle class="st17" cx="804.1" cy="536.2" r="3.6"/>
		<circle class="st11" cx="804.1" cy="536.1" r="1.6"/>
	</g>
	<g class="st18">
		<linearGradient id="SVGID_13_" gradientUnits="userSpaceOnUse" x1="313.2625" y1="158.2377" x2="314.2789" y2="591.2391">
			<stop  offset="4.212625e-02" style="stop-color:#F4B3F5;stop-opacity:0"/>
			<stop  offset="0.1004" style="stop-color:#EEB3F3;stop-opacity:8.226135e-02"/>
			<stop  offset="0.1793" style="stop-color:#DDB5EC;stop-opacity:0.1938"/>
			<stop  offset="0.2702" style="stop-color:#C0B7E1;stop-opacity:0.3221"/>
			<stop  offset="0.3699" style="stop-color:#98BAD2;stop-opacity:0.463"/>
			<stop  offset="0.4756" style="stop-color:#66BEBF;stop-opacity:0.6123"/>
			<stop  offset="0.5377" style="stop-color:#45C1B3;stop-opacity:0.7"/>
			<stop  offset="0.5441" style="stop-color:#4BC3B5;stop-opacity:0.6903"/>
			<stop  offset="0.6036" style="stop-color:#7AD3C9;stop-opacity:0.6003"/>
			<stop  offset="0.6649" style="stop-color:#A3E0D9;stop-opacity:0.5074"/>
			<stop  offset="0.7272" style="stop-color:#C4EBE7;stop-opacity:0.4131"/>
			<stop  offset="0.7908" style="stop-color:#DEF4F2;stop-opacity:0.3168"/>
			<stop  offset="0.8561" style="stop-color:#F0FAF9;stop-opacity:0.2179"/>
			<stop  offset="0.9243" style="stop-color:#FBFEFE;stop-opacity:0.1146"/>
			<stop  offset="1" style="stop-color:#FFFFFF;stop-opacity:0"/>
		</linearGradient>
		<path class="st19" d="M320.8,187.9V573h-14V189.9c1.2-0.2,2.3-0.4,3.5-0.6C313.8,188.7,317.3,188.3,320.8,187.9z"/>
		<linearGradient id="SVGID_14_" gradientUnits="userSpaceOnUse" x1="331.8533" y1="157.0179" x2="332.8727" y2="591.2843">
			<stop  offset="4.212625e-02" style="stop-color:#40B3A5;stop-opacity:0"/>
			<stop  offset="0.3341" style="stop-color:#42B9AB;stop-opacity:0.4124"/>
			<stop  offset="0.5377" style="stop-color:#45C1B3;stop-opacity:0.7"/>
			<stop  offset="0.5441" style="stop-color:#4BC3B5;stop-opacity:0.6903"/>
			<stop  offset="0.6036" style="stop-color:#7AD3C9;stop-opacity:0.6003"/>
			<stop  offset="0.6649" style="stop-color:#A3E0D9;stop-opacity:0.5074"/>
			<stop  offset="0.7272" style="stop-color:#C4EBE7;stop-opacity:0.4131"/>
			<stop  offset="0.7908" style="stop-color:#DEF4F2;stop-opacity:0.3168"/>
			<stop  offset="0.8561" style="stop-color:#F0FAF9;stop-opacity:0.2179"/>
			<stop  offset="0.9243" style="stop-color:#FBFEFE;stop-opacity:0.1146"/>
			<stop  offset="1" style="stop-color:#FFFFFF;stop-opacity:0"/>
		</linearGradient>
		<polygon class="st20" points="335.9,186.8 335.9,573 328.9,573 328.9,187.1 		"/>
		<linearGradient id="SVGID_15_" gradientUnits="userSpaceOnUse" x1="303.7319" y1="159.7703" x2="304.7446" y2="591.1693">
			<stop  offset="4.212625e-02" style="stop-color:#40B3A5;stop-opacity:0"/>
			<stop  offset="0.3341" style="stop-color:#42B9AB;stop-opacity:0.4124"/>
			<stop  offset="0.5377" style="stop-color:#45C1B3;stop-opacity:0.7"/>
			<stop  offset="0.5441" style="stop-color:#4BC3B5;stop-opacity:0.6903"/>
			<stop  offset="0.6036" style="stop-color:#7AD3C9;stop-opacity:0.6003"/>
			<stop  offset="0.6649" style="stop-color:#A3E0D9;stop-opacity:0.5074"/>
			<stop  offset="0.7272" style="stop-color:#C4EBE7;stop-opacity:0.4131"/>
			<stop  offset="0.7908" style="stop-color:#DEF4F2;stop-opacity:0.3168"/>
			<stop  offset="0.8561" style="stop-color:#F0FAF9;stop-opacity:0.2179"/>
			<stop  offset="0.9243" style="stop-color:#FBFEFE;stop-opacity:0.1146"/>
			<stop  offset="1" style="stop-color:#FFFFFF;stop-opacity:0"/>
		</linearGradient>
		<path class="st21" d="M310.3,189.3V573h-12.1V191.7c2.8-0.7,5.7-1.2,8.6-1.8C307.9,189.7,309.1,189.5,310.3,189.3z"/>
	</g>
	<g class="st18">
		<linearGradient id="SVGID_16_" gradientUnits="userSpaceOnUse" x1="561.2899" y1="278.0163" x2="561.9602" y2="563.5634">
			<stop  offset="4.212625e-02" style="stop-color:#40B3A5;stop-opacity:0"/>
			<stop  offset="0.3341" style="stop-color:#42B9AB;stop-opacity:0.4124"/>
			<stop  offset="0.5377" style="stop-color:#45C1B3;stop-opacity:0.7"/>
			<stop  offset="0.5441" style="stop-color:#4BC3B5;stop-opacity:0.6903"/>
			<stop  offset="0.6036" style="stop-color:#7AD3C9;stop-opacity:0.6003"/>
			<stop  offset="0.6649" style="stop-color:#A3E0D9;stop-opacity:0.5074"/>
			<stop  offset="0.7272" style="stop-color:#C4EBE7;stop-opacity:0.4131"/>
			<stop  offset="0.7908" style="stop-color:#DEF4F2;stop-opacity:0.3168"/>
			<stop  offset="0.8561" style="stop-color:#F0FAF9;stop-opacity:0.2179"/>
			<stop  offset="0.9243" style="stop-color:#FBFEFE;stop-opacity:0.1146"/>
			<stop  offset="1" style="stop-color:#FFFFFF;stop-opacity:0"/>
		</linearGradient>
		<path class="st22" d="M569.1,312.7v238.8h-14.9V297.6c1.2,1.3,2.5,2.6,3.7,3.9C561.6,305.3,565.3,309,569.1,312.7z"/>
		<linearGradient id="SVGID_17_" gradientUnits="userSpaceOnUse" x1="581.0563" y1="303.3257" x2="581.6646" y2="562.4412">
			<stop  offset="4.212625e-02" style="stop-color:#40B3A5;stop-opacity:0"/>
			<stop  offset="0.3341" style="stop-color:#42B9AB;stop-opacity:0.4124"/>
			<stop  offset="0.5377" style="stop-color:#45C1B3;stop-opacity:0.7"/>
			<stop  offset="0.5441" style="stop-color:#4BC3B5;stop-opacity:0.6903"/>
			<stop  offset="0.6036" style="stop-color:#7AD3C9;stop-opacity:0.6003"/>
			<stop  offset="0.6649" style="stop-color:#A3E0D9;stop-opacity:0.5074"/>
			<stop  offset="0.7272" style="stop-color:#C4EBE7;stop-opacity:0.4131"/>
			<stop  offset="0.7908" style="stop-color:#DEF4F2;stop-opacity:0.3168"/>
			<stop  offset="0.8561" style="stop-color:#F0FAF9;stop-opacity:0.2179"/>
			<stop  offset="0.9243" style="stop-color:#FBFEFE;stop-opacity:0.1146"/>
			<stop  offset="1" style="stop-color:#FFFFFF;stop-opacity:0"/>
		</linearGradient>
		<path class="st23" d="M585.1,328v223.5h-7.4V321.1C580.1,323.4,582.6,325.7,585.1,328z"/>
		<linearGradient id="SVGID_18_" gradientUnits="userSpaceOnUse" x1="551.1694" y1="267.8572" x2="551.8646" y2="564.0076">
			<stop  offset="4.212625e-02" style="stop-color:#40B3A5;stop-opacity:0"/>
			<stop  offset="0.3341" style="stop-color:#42B9AB;stop-opacity:0.4124"/>
			<stop  offset="0.5377" style="stop-color:#45C1B3;stop-opacity:0.7"/>
			<stop  offset="0.5441" style="stop-color:#4BC3B5;stop-opacity:0.6903"/>
			<stop  offset="0.6036" style="stop-color:#7AD3C9;stop-opacity:0.6003"/>
			<stop  offset="0.6649" style="stop-color:#A3E0D9;stop-opacity:0.5074"/>
			<stop  offset="0.7272" style="stop-color:#C4EBE7;stop-opacity:0.4131"/>
			<stop  offset="0.7908" style="stop-color:#DEF4F2;stop-opacity:0.3168"/>
			<stop  offset="0.8561" style="stop-color:#F0FAF9;stop-opacity:0.2179"/>
			<stop  offset="0.9243" style="stop-color:#FBFEFE;stop-opacity:0.1146"/>
			<stop  offset="1" style="stop-color:#FFFFFF;stop-opacity:0"/>
		</linearGradient>
		<path class="st24" d="M557.9,301.5v250.1h-12.8V288.2c3,3.1,6,6.3,9.1,9.4C555.4,298.9,556.7,300.2,557.9,301.5z"/>
	</g>
	<g class="st18">
		<linearGradient id="SVGID_19_" gradientUnits="userSpaceOnUse" x1="185.2596" y1="232.1815" x2="186.3789" y2="709.0008">
			<stop  offset="4.212625e-02" style="stop-color:#40B3A5;stop-opacity:0"/>
			<stop  offset="0.3341" style="stop-color:#42B9AB;stop-opacity:0.4124"/>
			<stop  offset="0.5377" style="stop-color:#45C1B3;stop-opacity:0.7"/>
			<stop  offset="0.5441" style="stop-color:#4BC3B5;stop-opacity:0.6903"/>
			<stop  offset="0.6036" style="stop-color:#7AD3C9;stop-opacity:0.6003"/>
			<stop  offset="0.6649" style="stop-color:#A3E0D9;stop-opacity:0.5074"/>
			<stop  offset="0.7272" style="stop-color:#C4EBE7;stop-opacity:0.4131"/>
			<stop  offset="0.7908" style="stop-color:#DEF4F2;stop-opacity:0.3168"/>
			<stop  offset="0.8561" style="stop-color:#F0FAF9;stop-opacity:0.2179"/>
			<stop  offset="0.9243" style="stop-color:#FBFEFE;stop-opacity:0.1146"/>
			<stop  offset="1" style="stop-color:#FFFFFF;stop-opacity:0"/>
		</linearGradient>
		<path class="st25" d="M191,264.8v424.1h-10.4V281.2c0.9-1.5,1.7-2.9,2.6-4.4C185.7,272.8,188.3,268.8,191,264.8z"/>
		<linearGradient id="SVGID_20_" gradientUnits="userSpaceOnUse" x1="199.0125" y1="218.407" x2="200.1655" y2="709.6002">
			<stop  offset="4.212625e-02" style="stop-color:#40B3A5;stop-opacity:0"/>
			<stop  offset="0.3341" style="stop-color:#42B9AB;stop-opacity:0.4124"/>
			<stop  offset="0.5377" style="stop-color:#45C1B3;stop-opacity:0.7"/>
			<stop  offset="0.5441" style="stop-color:#4BC3B5;stop-opacity:0.6903"/>
			<stop  offset="0.6036" style="stop-color:#7AD3C9;stop-opacity:0.6003"/>
			<stop  offset="0.6649" style="stop-color:#A3E0D9;stop-opacity:0.5074"/>
			<stop  offset="0.7272" style="stop-color:#C4EBE7;stop-opacity:0.4131"/>
			<stop  offset="0.7908" style="stop-color:#DEF4F2;stop-opacity:0.3168"/>
			<stop  offset="0.8561" style="stop-color:#F0FAF9;stop-opacity:0.2179"/>
			<stop  offset="0.9243" style="stop-color:#FBFEFE;stop-opacity:0.1146"/>
			<stop  offset="1" style="stop-color:#FFFFFF;stop-opacity:0"/>
		</linearGradient>
		<path class="st26" d="M202.2,252.1v436.8H197V256.6c1.2-1.5,2.4-3.1,3.7-4.6H202.2z"/>
		<linearGradient id="SVGID_21_" gradientUnits="userSpaceOnUse" x1="178.2109" y1="245.1204" x2="179.2985" y2="708.4299">
			<stop  offset="4.212625e-02" style="stop-color:#40B3A5;stop-opacity:0"/>
			<stop  offset="0.3341" style="stop-color:#42B9AB;stop-opacity:0.4124"/>
			<stop  offset="0.5377" style="stop-color:#45C1B3;stop-opacity:0.7"/>
			<stop  offset="0.5441" style="stop-color:#4BC3B5;stop-opacity:0.6903"/>
			<stop  offset="0.6036" style="stop-color:#7AD3C9;stop-opacity:0.6003"/>
			<stop  offset="0.6649" style="stop-color:#A3E0D9;stop-opacity:0.5074"/>
			<stop  offset="0.7272" style="stop-color:#C4EBE7;stop-opacity:0.4131"/>
			<stop  offset="0.7908" style="stop-color:#DEF4F2;stop-opacity:0.3168"/>
			<stop  offset="0.8561" style="stop-color:#F0FAF9;stop-opacity:0.2179"/>
			<stop  offset="0.9243" style="stop-color:#FBFEFE;stop-opacity:0.1146"/>
			<stop  offset="1" style="stop-color:#FFFFFF;stop-opacity:0"/>
		</linearGradient>
		<path class="st27" d="M183.2,276.9v412h-8.9V292.8c2-3.9,4.1-7.8,6.3-11.6C181.5,279.7,182.3,278.3,183.2,276.9z"/>
	</g>
	<g class="st18">
		<linearGradient id="SVGID_22_" gradientUnits="userSpaceOnUse" x1="447.9641" y1="188.4195" x2="448.6615" y2="485.5007">
			<stop  offset="4.212625e-02" style="stop-color:#40B3A5;stop-opacity:0"/>
			<stop  offset="0.3341" style="stop-color:#42B9AB;stop-opacity:0.4124"/>
			<stop  offset="0.5377" style="stop-color:#45C1B3;stop-opacity:0.7"/>
			<stop  offset="0.5441" style="stop-color:#4BC3B5;stop-opacity:0.6903"/>
			<stop  offset="0.6036" style="stop-color:#7AD3C9;stop-opacity:0.6003"/>
			<stop  offset="0.6649" style="stop-color:#A3E0D9;stop-opacity:0.5074"/>
			<stop  offset="0.7272" style="stop-color:#C4EBE7;stop-opacity:0.4131"/>
			<stop  offset="0.7908" style="stop-color:#DEF4F2;stop-opacity:0.3168"/>
			<stop  offset="0.8561" style="stop-color:#F0FAF9;stop-opacity:0.2179"/>
			<stop  offset="0.9243" style="stop-color:#FBFEFE;stop-opacity:0.1146"/>
			<stop  offset="1" style="stop-color:#FFFFFF;stop-opacity:0"/>
		</linearGradient>
		<path class="st28" d="M452.1,212.4V473h-7.6V208.8c0.6,0.3,1.3,0.6,1.9,0.9C448.3,210.5,450.2,211.5,452.1,212.4z"/>
		<linearGradient id="SVGID_23_" gradientUnits="userSpaceOnUse" x1="458.0092" y1="194.7415" x2="458.6911" y2="485.218">
			<stop  offset="4.212625e-02" style="stop-color:#40B3A5;stop-opacity:0"/>
			<stop  offset="0.3341" style="stop-color:#42B9AB;stop-opacity:0.4124"/>
			<stop  offset="0.5377" style="stop-color:#45C1B3;stop-opacity:0.7"/>
			<stop  offset="0.5441" style="stop-color:#4BC3B5;stop-opacity:0.6903"/>
			<stop  offset="0.6036" style="stop-color:#7AD3C9;stop-opacity:0.6003"/>
			<stop  offset="0.6649" style="stop-color:#A3E0D9;stop-opacity:0.5074"/>
			<stop  offset="0.7272" style="stop-color:#C4EBE7;stop-opacity:0.4131"/>
			<stop  offset="0.7908" style="stop-color:#DEF4F2;stop-opacity:0.3168"/>
			<stop  offset="0.8561" style="stop-color:#F0FAF9;stop-opacity:0.2179"/>
			<stop  offset="0.9243" style="stop-color:#FBFEFE;stop-opacity:0.1146"/>
			<stop  offset="1" style="stop-color:#FFFFFF;stop-opacity:0"/>
		</linearGradient>
		<path class="st29" d="M460.3,216.7V473h-3.8V214.6C457.7,215.3,459,216,460.3,216.7z"/>
		<linearGradient id="SVGID_24_" gradientUnits="userSpaceOnUse" x1="442.8172" y1="186.1915" x2="443.5201" y2="485.5974">
			<stop  offset="4.212625e-02" style="stop-color:#40B3A5;stop-opacity:0"/>
			<stop  offset="0.3341" style="stop-color:#42B9AB;stop-opacity:0.4124"/>
			<stop  offset="0.5377" style="stop-color:#45C1B3;stop-opacity:0.7"/>
			<stop  offset="0.5441" style="stop-color:#4BC3B5;stop-opacity:0.6903"/>
			<stop  offset="0.6036" style="stop-color:#7AD3C9;stop-opacity:0.6003"/>
			<stop  offset="0.6649" style="stop-color:#A3E0D9;stop-opacity:0.5074"/>
			<stop  offset="0.7272" style="stop-color:#C4EBE7;stop-opacity:0.4131"/>
			<stop  offset="0.7908" style="stop-color:#DEF4F2;stop-opacity:0.3168"/>
			<stop  offset="0.8561" style="stop-color:#F0FAF9;stop-opacity:0.2179"/>
			<stop  offset="0.9243" style="stop-color:#FBFEFE;stop-opacity:0.1146"/>
			<stop  offset="1" style="stop-color:#FFFFFF;stop-opacity:0"/>
		</linearGradient>
		<path class="st30" d="M444.5,208.8c0.6,0.3,1.3,0.6,1.9,0.9V473h-6.5V206.7C441.5,207.4,443,208.1,444.5,208.8z"/>
	</g>
	<g class="st18">
		<linearGradient id="SVGID_25_" gradientUnits="userSpaceOnUse" x1="708.4989" y1="380.0921" x2="708.748" y2="486.2163">
			<stop  offset="4.212625e-02" style="stop-color:#40B3A5;stop-opacity:0"/>
			<stop  offset="0.3341" style="stop-color:#42B9AB;stop-opacity:0.4124"/>
			<stop  offset="0.5377" style="stop-color:#45C1B3;stop-opacity:0.7"/>
			<stop  offset="0.5441" style="stop-color:#4BC3B5;stop-opacity:0.6903"/>
			<stop  offset="0.6036" style="stop-color:#7AD3C9;stop-opacity:0.6003"/>
			<stop  offset="0.6649" style="stop-color:#A3E0D9;stop-opacity:0.5074"/>
			<stop  offset="0.7272" style="stop-color:#C4EBE7;stop-opacity:0.4131"/>
			<stop  offset="0.7908" style="stop-color:#DEF4F2;stop-opacity:0.3168"/>
			<stop  offset="0.8561" style="stop-color:#F0FAF9;stop-opacity:0.2179"/>
			<stop  offset="0.9243" style="stop-color:#FBFEFE;stop-opacity:0.1146"/>
			<stop  offset="1" style="stop-color:#FFFFFF;stop-opacity:0"/>
		</linearGradient>
		<path class="st31" d="M706.7,387.9c1.9,0.5,3.8,0.9,5.7,1.4v92.5h-5.7h-1.9v-94.4L706.7,387.9z"/>
		<linearGradient id="SVGID_26_" gradientUnits="userSpaceOnUse" x1="718.5467" y1="383.2959" x2="718.7879" y2="486.0706">
			<stop  offset="4.212625e-02" style="stop-color:#40B3A5;stop-opacity:0"/>
			<stop  offset="0.3341" style="stop-color:#42B9AB;stop-opacity:0.4124"/>
			<stop  offset="0.5377" style="stop-color:#45C1B3;stop-opacity:0.7"/>
			<stop  offset="0.5441" style="stop-color:#4BC3B5;stop-opacity:0.6903"/>
			<stop  offset="0.6036" style="stop-color:#7AD3C9;stop-opacity:0.6003"/>
			<stop  offset="0.6649" style="stop-color:#A3E0D9;stop-opacity:0.5074"/>
			<stop  offset="0.7272" style="stop-color:#C4EBE7;stop-opacity:0.4131"/>
			<stop  offset="0.7908" style="stop-color:#DEF4F2;stop-opacity:0.3168"/>
			<stop  offset="0.8561" style="stop-color:#F0FAF9;stop-opacity:0.2179"/>
			<stop  offset="0.9243" style="stop-color:#FBFEFE;stop-opacity:0.1146"/>
			<stop  offset="1" style="stop-color:#FFFFFF;stop-opacity:0"/>
		</linearGradient>
		<path class="st32" d="M720.6,391.3v90.4h-3.8v-91.4C718,390.7,719.3,391,720.6,391.3z"/>
		<linearGradient id="SVGID_27_" gradientUnits="userSpaceOnUse" x1="703.3527" y1="378.8496" x2="703.6048" y2="486.2697">
			<stop  offset="4.212625e-02" style="stop-color:#40B3A5;stop-opacity:0"/>
			<stop  offset="0.3341" style="stop-color:#42B9AB;stop-opacity:0.4124"/>
			<stop  offset="0.5377" style="stop-color:#45C1B3;stop-opacity:0.7"/>
			<stop  offset="0.5441" style="stop-color:#4BC3B5;stop-opacity:0.6903"/>
			<stop  offset="0.6036" style="stop-color:#7AD3C9;stop-opacity:0.6003"/>
			<stop  offset="0.6649" style="stop-color:#A3E0D9;stop-opacity:0.5074"/>
			<stop  offset="0.7272" style="stop-color:#C4EBE7;stop-opacity:0.4131"/>
			<stop  offset="0.7908" style="stop-color:#DEF4F2;stop-opacity:0.3168"/>
			<stop  offset="0.8561" style="stop-color:#F0FAF9;stop-opacity:0.2179"/>
			<stop  offset="0.9243" style="stop-color:#FBFEFE;stop-opacity:0.1146"/>
			<stop  offset="1" style="stop-color:#FFFFFF;stop-opacity:0"/>
		</linearGradient>
		<path class="st33" d="M704.8,387.4c-1.5-0.4-3.1-0.8-4.6-1.2v95.5h4.6h1.9v-93.9L704.8,387.4z"/>
	</g>
	<g class="st18">
		<linearGradient id="SVGID_28_" gradientUnits="userSpaceOnUse" x1="774.8232" y1="525.1301" x2="775.1462" y2="662.7401">
			<stop  offset="4.212625e-02" style="stop-color:#40B3A5;stop-opacity:0"/>
			<stop  offset="0.3341" style="stop-color:#42B9AB;stop-opacity:0.4124"/>
			<stop  offset="0.5377" style="stop-color:#45C1B3;stop-opacity:0.7"/>
			<stop  offset="0.5441" style="stop-color:#4BC3B5;stop-opacity:0.6903"/>
			<stop  offset="0.6036" style="stop-color:#7AD3C9;stop-opacity:0.6003"/>
			<stop  offset="0.6649" style="stop-color:#A3E0D9;stop-opacity:0.5074"/>
			<stop  offset="0.7272" style="stop-color:#C4EBE7;stop-opacity:0.4131"/>
			<stop  offset="0.7908" style="stop-color:#DEF4F2;stop-opacity:0.3168"/>
			<stop  offset="0.8561" style="stop-color:#F0FAF9;stop-opacity:0.2179"/>
			<stop  offset="0.9243" style="stop-color:#FBFEFE;stop-opacity:0.1146"/>
			<stop  offset="1" style="stop-color:#FFFFFF;stop-opacity:0"/>
		</linearGradient>
		<path class="st34" d="M778.8,534.6v116.5c-1.9,1.5-3.8,2.9-5.7,4.4c-0.6,0.5-1.3,1-1.9,1.4V534.6H778.8z"/>
		<linearGradient id="SVGID_29_" gradientUnits="userSpaceOnUse" x1="784.8634" y1="525.8533" x2="785.1618" y2="652.9723">
			<stop  offset="4.212625e-02" style="stop-color:#40B3A5;stop-opacity:0"/>
			<stop  offset="0.3341" style="stop-color:#42B9AB;stop-opacity:0.4124"/>
			<stop  offset="0.5377" style="stop-color:#45C1B3;stop-opacity:0.7"/>
			<stop  offset="0.5441" style="stop-color:#4BC3B5;stop-opacity:0.6903"/>
			<stop  offset="0.6036" style="stop-color:#7AD3C9;stop-opacity:0.6003"/>
			<stop  offset="0.6649" style="stop-color:#A3E0D9;stop-opacity:0.5074"/>
			<stop  offset="0.7272" style="stop-color:#C4EBE7;stop-opacity:0.4131"/>
			<stop  offset="0.7908" style="stop-color:#DEF4F2;stop-opacity:0.3168"/>
			<stop  offset="0.8561" style="stop-color:#F0FAF9;stop-opacity:0.2179"/>
			<stop  offset="0.9243" style="stop-color:#FBFEFE;stop-opacity:0.1146"/>
			<stop  offset="1" style="stop-color:#FFFFFF;stop-opacity:0"/>
		</linearGradient>
		<path class="st35" d="M786.9,534.6v110c-1.2,1-2.5,2.1-3.8,3.1V534.6H786.9z"/>
		<linearGradient id="SVGID_30_" gradientUnits="userSpaceOnUse" x1="769.6663" y1="524.8621" x2="769.9985" y2="666.4017">
			<stop  offset="4.212625e-02" style="stop-color:#40B3A5;stop-opacity:0"/>
			<stop  offset="0.3341" style="stop-color:#42B9AB;stop-opacity:0.4124"/>
			<stop  offset="0.5377" style="stop-color:#45C1B3;stop-opacity:0.7"/>
			<stop  offset="0.5441" style="stop-color:#4BC3B5;stop-opacity:0.6903"/>
			<stop  offset="0.6036" style="stop-color:#7AD3C9;stop-opacity:0.6003"/>
			<stop  offset="0.6649" style="stop-color:#A3E0D9;stop-opacity:0.5074"/>
			<stop  offset="0.7272" style="stop-color:#C4EBE7;stop-opacity:0.4131"/>
			<stop  offset="0.7908" style="stop-color:#DEF4F2;stop-opacity:0.3168"/>
			<stop  offset="0.8561" style="stop-color:#F0FAF9;stop-opacity:0.2179"/>
			<stop  offset="0.9243" style="stop-color:#FBFEFE;stop-opacity:0.1146"/>
			<stop  offset="1" style="stop-color:#FFFFFF;stop-opacity:0"/>
		</linearGradient>
		<path class="st36" d="M773.1,534.6v120.9c-0.6,0.5-1.3,1-1.9,1.4c-1.5,1.2-3.1,2.3-4.6,3.5V534.6H773.1z"/>
	</g>
	<g class="st37">
		<linearGradient id="SVGID_31_" gradientUnits="userSpaceOnUse" x1="416.4737" y1="384.1017" x2="613.5857" y2="384.1017">
			<stop  offset="4.212625e-02" style="stop-color:#5DFEB0;stop-opacity:0"/>
			<stop  offset="1" style="stop-color:#5DFEB0"/>
		</linearGradient>
		<path class="st38" d="M569.1,312.7c-2.6-2.6-5.3-5.3-7.9-7.9c-1.1-1.1-2.2-2.2-3.3-3.3c-1.2-1.3-2.5-2.6-3.7-3.9
			c-3-3.1-6-6.3-9.1-9.4c-1.8-1.8-3.5-3.7-5.3-5.5c-3.5-3.7-7.1-7.3-10.6-10.9c-6,9.6-11.3,16.1-16.9,24.7
			c-9.4,14.5-46,33.2-74.1,68.1s-21,132-21,132s36.9-83.7,57.6-91.1c21.3-7.7,25.5-12.8,60.4-38.3c21.6-15.8,30.8-35.5,35.8-52.3
			C570.5,314.1,569.8,313.4,569.1,312.7z"/>
		<path class="st39" d="M561.2,304.8c-31.5,37.4-77.3,63.5-90.9,80.3c-23.7,29.3-44.9,93-44.9,93c-3-65.4,39.1-124.8,56.7-137.4
			c13.1-9.4,40.8-35.1,57.8-58c1.8,1.8,3.5,3.7,5.3,5.5c3,3.1,6,6.3,9.1,9.4c1.2,1.3,2.5,2.6,3.7,3.9
			C559,302.6,560.1,303.7,561.2,304.8z"/>
	</g>
	<g class="st40">
		
			<linearGradient id="SVGID_32_" gradientUnits="userSpaceOnUse" x1="392.2379" y1="2110.3572" x2="580.8215" y2="2110.3572" gradientTransform="matrix(0.975 0.2223 -0.2223 0.975 638.5841 -1712.0267)">
			<stop  offset="0" style="stop-color:#E77CB0;stop-opacity:0"/>
			<stop  offset="0.3751" style="stop-color:#EF7AB0;stop-opacity:0.3751"/>
			<stop  offset="1" style="stop-color:#F778B0"/>
		</linearGradient>
		<path class="st41" d="M712.4,389.3c-1.9-0.5-3.8-0.9-5.7-1.4l-1.9-0.5c-1.5-0.4-3.1-0.8-4.6-1.2c-5.1-1.3-10.2-2.6-15.3-4
			c-8.2-2.3-16.2-4.7-24.2-7.5c-2.9-1-5.7-2.1-8.6-3.2c-0.9-0.4-1.8-0.7-2.6-1.1c-0.1,0-0.1-0.1-0.2-0.1c-2.3-1-4.7-2-7-3
			c-2.7-1.2-5.4-2.5-8-3.9c-0.2-0.1-0.5-0.2-0.7-0.3c-15.5,7.4-33.5,16.7-50.4,30c-35.1,27.8-49.8,124-49.8,124s54.6-73.4,76.4-76
			c22.5-2.7,27.7-6.8,67.5-23.9c16.4-7.1,27.8-17.1,36.2-27.5L712.4,389.3z"/>
		<linearGradient id="SVGID_33_" gradientUnits="userSpaceOnUse" x1="545.5287" y1="435.5591" x2="684.8936" y2="435.5591">
			<stop  offset="0" style="stop-color:#E7A5D0;stop-opacity:0"/>
			<stop  offset="0.2342" style="stop-color:#EC97C6;stop-opacity:0.2342"/>
			<stop  offset="0.7031" style="stop-color:#F480B6;stop-opacity:0.7031"/>
			<stop  offset="1" style="stop-color:#F778B0"/>
		</linearGradient>
		<path class="st42" d="M684.9,382.2c-31.2,17.1-62.3,28.1-74.9,38c-29.7,23.3-64.5,80.7-64.5,80.7c11.6-64.5,65.8-113,85.8-121.4
			c4.6-1.9,11-5.1,18.2-9.1c0.9,0.4,1.8,0.7,2.6,1.1c2.8,1.1,5.7,2.2,8.6,3.2C668.6,377.4,676.7,379.9,684.9,382.2z"/>
	</g>
	<path class="st39" d="M380.5,536.2c0,0-21.2-63.6-44.9-93c-17-21-84.6-56.7-111.3-110.8c-9-18.4-24-33.2-42.7-41.5
		C132.2,269,71.1,246.3,65.3,240.1c-10.1-10.8,2-3.9,2-3.9s72.9,32.7,112.3,33.5c39.4,0.8,64.5,24.3,73.8,49.5
		c9.2,25.1,52.8,67.1,70.4,79.6C341.5,411.3,383.6,470.7,380.5,536.2z"/>
	<linearGradient id="SVGID_34_" gradientUnits="userSpaceOnUse" x1="151.4467" y1="449.4689" x2="415.2165" y2="449.4689">
		<stop  offset="4.212625e-02" style="stop-color:#5DFEB0;stop-opacity:0"/>
		<stop  offset="0.4671" style="stop-color:#5DFEB0"/>
		<stop  offset="0.9987" style="stop-color:#5DFEB0;stop-opacity:0"/>
	</linearGradient>
	<path class="st43" d="M414.1,646.5c0,0,6.7-76.4-12.6-96.4c-19.3-20-12.4-60.9-10.4-82.9s8-50-39.9-81.9s-62.9-36.9-80.9-86.9
		s-118.8-45.9-118.8-45.9s14,94.9,57.9,103.9s36.1,57.9,74,85.9s38.9,33,54.9,37.9c16,5,18,43.9,29,67.9S414.1,646.5,414.1,646.5z"
		/>
	<path class="st44" d="M521.1,649.6c0,0,30.4-29.8,44.8-31c14.5-1.2,18.7-2.6,20.5-5.9c1.8-3.3,7.8-7.5,15.5-7.5s16.9-0.9,21.9-4
		c4.9-3.1,9.2-9.2,19.1-6.1s25.4,15,25.4,15l-9.9,18.6l2.1,18.8L521.1,649.6z"/>
	<linearGradient id="SVGID_35_" gradientUnits="userSpaceOnUse" x1="981.9363" y1="534.2093" x2="493.8905" y2="661.6434">
		<stop  offset="4.212625e-02" style="stop-color:#8A28DB"/>
		<stop  offset="0.1872" style="stop-color:#8432DA"/>
		<stop  offset="0.4331" style="stop-color:#734DD7"/>
		<stop  offset="0.7478" style="stop-color:#5878D3"/>
		<stop  offset="0.9987" style="stop-color:#3F9FCF"/>
	</linearGradient>
	<path class="st45" d="M852.4,532.5c0,0-0.8,12.6-3.2,22.6c-2.5,10.4-5.5,17.7-5.5,17.7c-8,20.7-21.5,40.6-40.8,58
		c-5.1,4.6-10.5,9.2-16.1,13.8c-1.2,1-2.5,2.1-3.8,3.1c-0.8,0.7-1.7,1.3-2.5,2c-0.1,0.1-0.1,0.1-0.2,0.2l-249.5,0
		c0,0,5.5,0.6,7.9-1.2c0.4-0.3,0.9-0.6,1.3-1c11.9-8.7,41.2-29.4,53.6-31.3c15.7-2.5,22.2,1.6,32.3,0c6.2-1,15-10.7,23-18.5
		c5-4.9,9.7-9,13.3-9.8c9.4-2,23.5,6.8,35.3,6.3c11.8-0.5,17.6-2.3,25.9-17.7c8.3-15.3,10.6-23.9,19.3-25.5c8.7-1.5,17,9.2,23,10.1
		c6,0.9,36.8-44.7,46.5-45.8C822.1,514.4,852.4,532.5,852.4,532.5z"/>
	<linearGradient id="SVGID_36_" gradientUnits="userSpaceOnUse" x1="690.5473" y1="678.3178" x2="683.241" y2="595.9993">
		<stop  offset="4.212625e-02" style="stop-color:#8A28DB"/>
		<stop  offset="0.2458" style="stop-color:#8027D3"/>
		<stop  offset="0.5911" style="stop-color:#6525BC"/>
		<stop  offset="0.9987" style="stop-color:#3E229B"/>
	</linearGradient>
	<path class="st46" d="M780.7,649.6C780.7,649.6,780.6,649.7,780.7,649.6c0.8-0.7,1.6-1.3,2.5-2c1.3-1,2.5-2,3.8-3.1
		c5.5-4.5,10.9-9.1,16-13.8c19.3-17.4,32.8-37.3,40.8-58l1.2-3.2c0,0-42.6,30.2-53,30.2c-10.4,0-12.2-14.3-25.5-13.5
		c-13.3,0.8-37.1,32.4-48.1,32.8c-11,0.4-28.4-9.3-39.4-10c-3.1-0.2-7.2,1-11.7,3h0c-11.5,5-25.9,14.6-34.7,16.2
		c-12.2,2.2-16.2,2-26.7,0.1c-7.2-1.3-42.7,11.1-64.3,19.1c-0.9,0.3-1.8,0.7-2.7,1c-8.5,3.1-14.8,1.2-14.8,1.2L780.7,649.6
		L780.7,649.6z"/>
	<linearGradient id="SVGID_37_" gradientUnits="userSpaceOnUse" x1="669.382" y1="249.0291" x2="523.1771" y2="412.5477">
		<stop  offset="0" style="stop-color:#121249"/>
		<stop  offset="0.1067" style="stop-color:#151555"/>
		<stop  offset="0.3001" style="stop-color:#1F1F75"/>
		<stop  offset="0.5565" style="stop-color:#2D2DA9"/>
		<stop  offset="0.6438" style="stop-color:#3333BC"/>
	</linearGradient>
	<path class="st47" d="M662.6,315.8c-4.9,9.3-10.9,13.7-19.9,13.6c-1.8,0-3.7-0.2-5.7-0.6c-0.4-0.1-0.9-0.2-1.3-0.3
		c-1.8-0.4-3.5-0.9-5.2-1.4c-2.9-0.9-5.8-2-8.6-3.3c-1-0.4-1.9-0.9-2.8-1.4c-2.4-1.2-4.7-2.5-7-3.8c-2.6-1.5-5-3.2-7.5-4.9
		c-1.6-1.1-3.2-2.3-4.7-3.5c-5.2-4.2-9.9-9.2-12.2-15.4c-4-10.9,1.7-19.9,10.6-25c1.7-1,3.6-1.8,5.5-2.5c2.7-0.9,5.5-1.6,8.3-1.9
		c2.3-0.3,4.6-0.5,7-0.5c0.9,0,1.9,0,2.8,0.1c0.8,0,1.7,0.1,2.5,0.2c2,0.2,4,0.5,6,0.8c2.2,0.4,4.4,0.9,6.6,1.4
		c1.9,0.5,3.8,1,5.7,1.6c1.2,0.4,2.3,0.8,3.4,1.2c7.9,2.8,16.2,6.8,19.9,14.2C671,294.4,667.5,306.6,662.6,315.8z"/>
	<linearGradient id="SVGID_38_" gradientUnits="userSpaceOnUse" x1="186.4314" y1="770.2015" x2="533.1415" y2="770.2015">
		<stop  offset="4.212625e-02" style="stop-color:#8A28DB"/>
		<stop  offset="0.1872" style="stop-color:#8432DA"/>
		<stop  offset="0.4331" style="stop-color:#734DD7"/>
		<stop  offset="0.7478" style="stop-color:#5878D3"/>
		<stop  offset="0.9987" style="stop-color:#3F9FCF"/>
	</linearGradient>
	<path class="st48" d="M533.1,786.6C533.1,786.6,533.1,786.6,533.1,786.6c-2.2,0.9-9.9,3.6-12,4.4c-5.8,2.3-11.5,4.4-17.2,6.4
		c-2,0.7-4.1,1.4-6.1,2.1c-5.5,1.8-10.9,3.5-16.4,5.1c-20.6,5.9-41.2,9.8-63.9,12.1c-30.9,3-61.9,0-91.7-8.1
		c-1.3-0.3-2.6-0.7-3.9-1.1c-1.8-0.5-3.7-1.1-5.5-1.7c-1.2-0.4-2.5-0.8-3.7-1.2c-0.9-0.3-1.8-0.6-2.7-0.9c0,0,0,0,0,0
		c-1-0.3-2-0.7-3-1c0,0,0,0,0,0c-4.2-1.5-8.4-3-12.5-4.7c-5.5-2.2-11-4.6-16.4-7.2c-13.1-6.3-25.8-13.5-37.9-21.6
		c-0.1-0.1-0.2-0.1-0.3-0.2c-5.7-3.8-11.2-7.8-16.6-12c-0.2-0.1-0.4-0.3-0.6-0.5c-0.9-0.7-1.7-1.4-2.6-2l-0.6-0.5l-3.9-3.2
		c-0.2-0.2-0.4-0.3-0.6-0.5c-0.8-0.7-1.6-1.4-2.5-2.1c-0.2-0.2-0.4-0.3-0.6-0.5c-1.3-1.1-2.5-2.2-3.8-3.3c-0.2-0.2-0.4-0.3-0.5-0.5
		c-0.8-0.7-1.6-1.4-2.4-2.2c-0.2-0.2-0.4-0.3-0.5-0.5c-1.2-1.1-2.5-2.2-3.7-3.4c-0.2-0.2-0.3-0.3-0.5-0.5c-0.8-0.7-1.5-1.5-2.3-2.2
		l-0.5-0.5l-1.1-1.1l-2.4-2.4h0c-0.2-0.2-0.3-0.3-0.5-0.5c-0.8-0.8-1.5-1.5-2.2-2.3c-0.2-0.2-0.3-0.3-0.5-0.5
		c-1.2-1.2-2.3-2.4-3.4-3.6c-0.2-0.2-0.3-0.3-0.5-0.5c-0.3-0.3-0.6-0.7-0.9-1c0.1,0,0.2,0,0.3,0h0c0.6,0,1.2,0.1,1.8,0.2h0.1
		c0.2,0,0.3,0,0.5,0c0.1,0,0.2,0,0.3,0c0.1,0,0.2,0,0.3,0c0,0,0,0,0,0c2.6,0.3,5.2,0.5,7.7,0.8c0.4,0,0.7,0.1,1.1,0.1h0
		c1.6,0.2,3.3,0.3,4.9,0.5c0.4,0,0.7,0.1,1.1,0.1h0c2.1,0.2,4.1,0.4,6.1,0.7c0.5,0,1,0.1,1.4,0.2c0.3,0,0.6,0.1,0.9,0.1
		c0.1,0,0.1,0,0.2,0h0l2,0.2h0c0.2,0,0.4,0,0.6,0.1c1.8,0.2,3.6,0.4,5.4,0.6c1.5,0.2,2.9,0.3,4.4,0.5c0.1,0,0.2,0,0.3,0
		c4.8,0.6,9.5,1.2,14,1.9c1.3,0.2,2.6,0.4,3.9,0.5c12.7,1.9,23.9,3.9,32.7,6c1.5,0.4,3.2,0.8,4.9,1.2c0.1,0,0.1,0,0.2,0
		c4,1,8.4,2,13.1,3.1h0c0.2,0.1,0.4,0.1,0.6,0.2l1.1,0.3c2.3,0.6,4.7,1.1,7.1,1.7h0c0.6,0.1,1.2,0.3,1.8,0.4
		c0.6,0.1,1.2,0.3,1.8,0.4c0,0,0,0,0,0c1,0.2,2,0.5,3,0.7c0,0,0,0,0,0c0.1,0,0.1,0,0.2,0c0.3,0.1,0.5,0.1,0.8,0.2
		c1.1,0.3,2.2,0.5,3.4,0.8c0.3,0.1,0.5,0.1,0.8,0.2c1.7,0.4,3.5,0.8,5.3,1.2c0.3,0.1,0.5,0.1,0.8,0.2c1.1,0.3,2.2,0.5,3.4,0.8
		c0.3,0.1,0.5,0.1,0.8,0.2c36.5,8.3,83,18.2,128.5,26.6c0.2,0,0.4,0.1,0.6,0.1c6,1.1,12.1,2.2,18,3.3c1,0.2,1.9,0.3,2.9,0.5
		c1.7,0.3,3.5,0.6,5.3,0.9c1.5,0.3,3,0.5,4.6,0.8c4.1,0.7,8.1,1.4,12.1,2c5.8,0.9,11.6,1.9,17.2,2.7c0.2,0,0.3,0.1,0.5,0.1
		c0.8,0.1,1.6,0.2,2.3,0.3c0,0,0,0,0,0c2.3,0.3,4.6,0.7,6.9,1c0.1,0,0.2,0,0.3,0h0c1.4,0.2,2.7,0.4,4,0.6
		C530.3,786.2,531.7,786.4,533.1,786.6L533.1,786.6C533.1,786.6,533.1,786.6,533.1,786.6z"/>
	<linearGradient id="SVGID_39_" gradientUnits="userSpaceOnUse" x1="306.7749" y1="649.3669" x2="309.4143" y2="820.9269">
		<stop  offset="0" style="stop-color:#FFFFFF"/>
		<stop  offset="1" style="stop-color:#FFFFFF;stop-opacity:0"/>
	</linearGradient>
	<path class="st49" d="M340.4,781.1l-30.2,20v2.6c-1-0.3-2-0.7-3-1v-1.7l-30-19.8c-0.7-0.5-0.9-1.4-0.4-2.1c0.5-0.7,1.4-0.9,2.1-0.4
		l28.3,18.7v-5.3l-27.8-18.3c-0.7-0.5-0.9-1.4-0.4-2.1c0.5-0.7,1.4-0.9,2.1-0.4l26.1,17.2v-5.3l-25.5-16.7c-0.7-0.5-0.9-1.4-0.4-2.1
		c0.5-0.7,1.4-0.9,2.1-0.4l23.9,15.6V774l-23.3-15.2c-0.7-0.5-0.9-1.4-0.4-2.1c0.5-0.7,1.4-0.9,2.1-0.4l21.6,14.1V765l-21-13.7
		c-0.7-0.4-0.9-1.4-0.4-2.1c0.5-0.7,1.4-0.9,2.1-0.4l19.4,12.6V756l-18.8-12.1c-0.7-0.5-0.9-1.4-0.5-2.1c0.5-0.7,1.4-0.9,2.1-0.5
		l17.2,11.1v-5.4l-10.7-6.9l-5.9-3.8c-0.7-0.5-0.9-1.4-0.5-2.1c0.5-0.7,1.4-0.9,2.1-0.5l13.1,8.4l1.8,1.2v-5.4l-14.3-9.1
		c-0.7-0.5-0.9-1.4-0.5-2.1c0.4-0.7,1.4-0.9,2.1-0.5l12.7,8.1v-5.4l-12.1-7.5c-0.7-0.5-0.9-1.4-0.5-2.1c0.5-0.7,1.4-0.9,2.1-0.5
		l10.5,6.5v-5.4l-9.8-6c-0.7-0.4-0.9-1.4-0.5-2.1c0.4-0.7,1.4-0.9,2.1-0.5l8.3,5v-5.4l-7.6-4.5c-0.7-0.4-1-1.4-0.5-2.1
		c0.4-0.7,1.4-1,2.1-0.5l6,3.6v-5.4l-5.3-3c-0.7-0.4-1-1.3-0.6-2.1c0.4-0.7,1.3-1,2.1-0.6l3.8,2.1v-5.4l-3-1.4
		c-0.8-0.4-1.1-1.3-0.7-2c0.4-0.8,1.3-1.1,2-0.7l1.7,0.8v-5.5c0-0.8,0.7-1.5,1.5-1.5c0.8,0,1.5,0.7,1.5,1.5v5.6l1.9-0.9
		c0.8-0.4,1.7,0,2,0.7c0.4,0.8,0,1.7-0.7,2l-3.2,1.5v5.5l4.1-2.3c0.7-0.4,1.6-0.2,2.1,0.6c0.4,0.7,0.2,1.6-0.6,2.1l-5.5,3.1v5.4
		l6.3-3.7c0.7-0.4,1.6-0.2,2.1,0.5c0.4,0.7,0.2,1.6-0.5,2.1l-7.8,4.6v5.4l8.5-5.2c0.7-0.4,1.6-0.2,2.1,0.5s0.2,1.6-0.5,2.1
		l-10.1,6.2v5.4l10.7-6.7c0.7-0.5,1.6-0.2,2.1,0.5c0.5,0.7,0.2,1.6-0.5,2.1l-12.3,7.7v5.4l12.9-8.2c0.7-0.4,1.7-0.2,2.1,0.5
		c0.4,0.7,0.2,1.7-0.5,2.1l-14.5,9.2v5.4l0.2-0.1l15-9.6c0.7-0.5,1.6-0.3,2.1,0.5c0.4,0.7,0.3,1.6-0.5,2.1l-12.5,8l-4.3,2.8v5.4
		l10.4-6.7l6.9-4.5c0.7-0.5,1.7-0.3,2.1,0.5c0.5,0.7,0.3,1.6-0.4,2.1l-4.5,2.9l-14.6,9.4v5.3l19.6-12.7c0.7-0.5,1.6-0.3,2.1,0.4
		c0.4,0.7,0.3,1.7-0.5,2.1l-21.3,13.8v5.3l21.9-14.3c0.7-0.5,1.6-0.3,2.1,0.4c0.5,0.7,0.3,1.7-0.5,2.1l-23.5,15.4v5.3l24.1-15.8
		c0.7-0.5,1.7-0.3,2.1,0.4c0.5,0.7,0.3,1.6-0.4,2.1l-25.7,16.9v5.3l26.3-17.3c0.7-0.5,1.6-0.3,2.1,0.4c0.5,0.7,0.3,1.6-0.4,2.1
		l-28,18.4v5.3l28.5-18.9c0.7-0.5,1.6-0.3,2.1,0.4C341.3,779.7,341.1,780.6,340.4,781.1z"/>
	<path class="st9" d="M294.4,738.9c-1.2-0.3-2.4-0.6-3.6-0.8c-2.1-0.5-4.2-1-6.2-1.4c-4.7-1.1-9.1-2.1-13.1-3.1h0
		c-1.2-0.3-2.3-0.6-3.3-0.8c-0.8-0.2-1.6-0.4-2.4-0.6c-11.8-2.9-27.9-5.5-46.1-7.9l2.4-8.9l3.8-14.2H246l-18.1-6.4l0.9-3.4l4.4-16.4
		l21.8-81.3l16.3,60.4l3.3,12.2l8.2,30.2l1.1,4.2v0l0.5,1.9l1.2,4.5v0l1.2,4.2v0l0.3,1.2l3,11.2l0.5,1.9l0.8,3.1l1.2,4.6l0.8,3.1
		L294.4,738.9z"/>
	<g>
		<path class="st3" d="M240.1,768.8c-5.7-3.8-11.2-7.8-16.6-12c-0.2-0.1-0.4-0.3-0.6-0.5c-0.9-0.7-1.7-1.4-2.6-2l-0.6-0.5l-3.9-3.2
			c-0.2-0.2-0.4-0.3-0.6-0.5c-0.8-0.7-1.6-1.4-2.5-2.1c-0.2-0.2-0.4-0.3-0.6-0.5c-1.3-1.1-2.5-2.2-3.8-3.3c-0.2-0.2-0.4-0.3-0.5-0.5
			c-0.8-0.7-1.6-1.4-2.4-2.2c-0.2-0.2-0.4-0.3-0.5-0.5c-1.2-1.1-2.5-2.2-3.7-3.4c-0.2-0.2-0.3-0.3-0.5-0.5c-0.8-0.7-1.5-1.5-2.3-2.2
			l-0.5-0.5l-1.1-1.1l-2.4-2.4h0c-0.2-0.2-0.3-0.3-0.5-0.5c-0.8-0.8-1.5-1.5-2.2-2.3c-0.2-0.2-0.3-0.3-0.5-0.5
			c-1.2-1.2-2.3-2.4-3.4-3.6c-0.2-0.2-0.3-0.3-0.5-0.5c-0.3-0.3-0.6-0.7-0.9-1c0.1,0,0.2,0,0.3,0h0c0.6,0,1.2,0.1,1.8,0.2
			c-0.2-0.2-0.4-0.4-0.6-0.6c-0.5-0.6-1.1-1.1-1.6-1.7l-0.5-0.5l-3-3.3l0,0c0,0,0,0,0,0c-1-1.1-2-2.2-3-3.3l-0.1-0.1
			c-0.4-0.5-0.9-1-1.3-1.5c-0.5-0.5-0.9-1.1-1.4-1.6l0,0l0,0c-0.5-0.6-1-1.2-1.5-1.8c-0.4-0.5-0.8-1-1.2-1.5
			c-3.2-3.9-6-7.4-8.5-10.7l-0.8-0.5l-0.1-0.1l-0.2-0.3l-0.7-1l-0.6-0.9l-3.8-5.5l0,0c0,0,0.1,0,0.1,0c-0.2-0.3-0.4-0.6-0.6-0.9
			c-0.7-1.1-1.4-2.1-2-3c0,0,0-0.1-0.1-0.1c-0.1-0.1-0.1-0.2-0.2-0.3c-0.1-0.1-0.1-0.2-0.2-0.3c-2-3.1-3.2-5.1-3.6-5.8
			c-0.1-0.1-0.1-0.2-0.1-0.2c0,0,0,0,0,0v0l0.7-2h0l9.7-26.3l0.2-0.6h0l0-0.1l0-0.1l10.7-29.1v0l6.3-17.2v0l1-2.6l1.6,4.7v0
			l7.8,22.6v0l6,17.3v0l1.5,4.4h0l0,0.1l0.1,0.2l0.1,0.4l3.5,10.1v0l5.3,15.3v0l7.3,21.2l4.1,11.9l2.8,8.2v0l0.1,0.4v0l1.2,3.5
			l0.2,0.6l0.6,1.9l0.8,2.2l0.3,0.8l0.5,1.4v0c0,0,0,0,0,0l0.2,0.6l0,0.1l0.2,0.7l0,0.1v0l13.7,39.7L240.1,768.8z"/>
		<linearGradient id="SVGID_40_" gradientUnits="userSpaceOnUse" x1="187.6156" y1="614.2596" x2="181.7596" y2="729.8182">
			<stop  offset="0" style="stop-color:#FFFFFF"/>
			<stop  offset="1" style="stop-color:#FFFFFF;stop-opacity:0"/>
		</linearGradient>
		<path class="st50" d="M159.6,688.1c0,0,0.1,0,0.1,0v0c0.2,0,0.4,0.1,0.5,0.2l18.7,12v-6.7l-18-11.4c-0.9-0.6-1.2-1.7-0.6-2.6
			c0.6-0.9,1.7-1.2,2.6-0.6l15.9,10.1v-6.7l-15.2-9.5c-0.9-0.6-1.2-1.7-0.6-2.6c0.6-0.9,1.7-1.2,2.6-0.6l13.2,8.2v-6.8l-12.3-7.5
			c-0.9-0.5-1.2-1.7-0.6-2.6c0.5-0.9,1.7-1.2,2.6-0.6l10.4,6.3v-6.8l-9.5-5.6c-0.9-0.5-1.2-1.7-0.7-2.6c0.5-0.9,1.7-1.2,2.6-0.7
			l7.6,4.5v-6.8l-6.7-3.7c-0.9-0.5-1.2-1.7-0.7-2.6c0.5-0.9,1.7-1.2,2.6-0.7l4.8,2.7v-6.8l-3.8-1.8c-0.9-0.5-1.3-1.6-0.9-2.5
			c0.4-0.9,1.6-1.3,2.5-0.9l2.1,1v-6.9c0-1,0.9-1.9,1.9-1.9c1.1,0,1.9,0.9,1.9,1.9v7l2.4-1.2c0.9-0.4,2.1-0.1,2.5,0.9
			c0.4,1,0.1,2.1-0.9,2.5l-4.1,1.9v6.8l5.1-2.8c0.9-0.5,2.1-0.2,2.6,0.7c0.5,0.9,0.2,2.1-0.7,2.6l-7,3.9v6.8l7.9-4.6
			c0.9-0.5,2.1-0.2,2.6,0.7c0.5,0.9,0.2,2.1-0.7,2.6l-9.8,5.8v6.8l10.7-6.5c0.9-0.5,2.1-0.3,2.6,0.6c0.6,0.9,0.3,2.1-0.6,2.6
			l-12.6,7.7v6.8l13.4-8.4c0.9-0.6,2.1-0.3,2.6,0.6c0.6,0.9,0.3,2.1-0.6,2.6l-15.5,9.6v6.7L199,679c0.9-0.6,2.1-0.3,2.6,0.6
			c0.6,0.9,0.3,2.1-0.6,2.6l-18.3,11.5v6.7l19-12.2c0.9-0.6,2.1-0.3,2.6,0.6c0.6,0.9,0.3,2.1-0.6,2.6L182.8,705v6.7l21.8-14.1
			c0.9-0.6,2.1-0.3,2.6,0.6c0.6,0.9,0.3,2.1-0.6,2.6l-23.9,15.4v0.6c-2.1-2.2-4-4.4-5.8-6.6l2,1.3v-6.7l-13.2-8.5l-0.8-0.5
			L159.6,688.1z"/>
		<linearGradient id="SVGID_41_" gradientUnits="userSpaceOnUse" x1="203.4041" y1="615.0523" x2="197.5477" y2="730.6187">
			<stop  offset="0" style="stop-color:#FFFFFF"/>
			<stop  offset="1" style="stop-color:#FFFFFF;stop-opacity:0"/>
		</linearGradient>
		<path class="st51" d="M209.9,709.8c-0.1,0.1-0.2,0.2-0.4,0.3l-13.6,8.8l-2.2,1.4l-3.3,2.2h0l-0.7,0.5l-0.2,0.1l0,0l-0.5,0.3
			l-0.5,0.3h0l0,0h0l-0.6,0.4c-0.2-0.2-0.3-0.3-0.5-0.5c-0.3-0.3-0.6-0.7-0.9-1c0.1,0,0.2,0,0.3,0h0c0.6,0,1.2,0.1,1.8,0.2
			c-0.2-0.2-0.4-0.4-0.6-0.6c-0.5-0.6-1.1-1.1-1.6-1.7l0.4-0.2l0,0l8.6-5.6l12-7.8c0.1-0.1,0.3-0.2,0.5-0.2c0.5-0.2,1.1-0.1,1.6,0.3
			c0.1,0,0.2,0.1,0.2,0.2c0.1,0.1,0.2,0.2,0.3,0.4v0c0.1,0.1,0.2,0.3,0.2,0.4c0,0,0,0,0,0c0,0,0,0,0,0h0c0,0.1,0,0.2,0,0.2
			C210.4,708.8,210.3,709.4,209.9,709.8z"/>
		<linearGradient id="SVGID_42_" gradientUnits="userSpaceOnUse" x1="207.9191" y1="615.2885" x2="202.063" y2="730.847">
			<stop  offset="0" style="stop-color:#FFFFFF"/>
			<stop  offset="1" style="stop-color:#FFFFFF;stop-opacity:0"/>
		</linearGradient>
		<path class="st52" d="M204.5,724.5l-8.8,5.7l-1.3,0.8c-0.9-0.9-1.8-1.8-2.7-2.8l1.2-0.8l5.5-3.6l11.7-7.6c0.9-0.6,2.1-0.3,2.6,0.5
			c0.6,0.9,0.3,2.1-0.6,2.6L204.5,724.5z"/>
		<linearGradient id="SVGID_43_" gradientUnits="userSpaceOnUse" x1="213.0966" y1="615.5695" x2="207.2415" y2="731.1105">
			<stop  offset="0" style="stop-color:#FFFFFF"/>
			<stop  offset="1" style="stop-color:#FFFFFF;stop-opacity:0"/>
		</linearGradient>
		<path class="st53" d="M215.8,728c-0.1,0.3-0.4,0.6-0.7,0.8l-12,7.9l-0.5,0.3l-1.3,0.9c-0.2-0.2-0.3-0.3-0.5-0.5
			c-0.8-0.7-1.5-1.5-2.3-2.2l1.3-0.9l0.5-0.4l11.7-7.7l0,0h0l0.9-0.6c0,0,0,0,0.1,0c0,0,0.1-0.1,0.1-0.1h0c0,0,0,0,0,0
			c0.1,0,0.2-0.1,0.3-0.1c0,0,0,0,0.1,0c0.1,0,0.3,0,0.4,0c0.1,0,0.3,0,0.4,0.1c0,0,0,0,0.1,0c0.1,0,0.3,0.1,0.4,0.1
			c0.1,0,0.2,0.1,0.3,0.2v0c0,0,0,0,0.1,0c0,0,0.1,0.1,0.1,0.1h0c0.1,0.1,0.2,0.2,0.3,0.3c0.1,0.1,0.2,0.3,0.2,0.5c0,0,0,0,0,0
			c0,0,0,0,0,0C216,727.1,216,727.6,215.8,728z"/>
		<linearGradient id="SVGID_44_" gradientUnits="userSpaceOnUse" x1="218.388" y1="615.8085" x2="212.5315" y2="731.3765">
			<stop  offset="0" style="stop-color:#FFFFFF"/>
			<stop  offset="1" style="stop-color:#FFFFFF;stop-opacity:0"/>
		</linearGradient>
		<path class="st54" d="M218.2,737.8c-0.1,0.1-0.2,0.2-0.3,0.3l-8,5.3l-0.1,0.1l-1.3,0.9c-0.2-0.2-0.4-0.3-0.5-0.5
			c-0.8-0.7-1.6-1.4-2.4-2.2l1.3-0.9l0.3-0.2l8.7-5.7c0.5-0.3,1.1-0.4,1.6-0.2c0.4,0.1,0.8,0.4,1,0.8c0.1,0.2,0.2,0.3,0.2,0.5
			c0,0,0,0,0,0C218.9,736.7,218.7,737.4,218.2,737.8z"/>
		<linearGradient id="SVGID_45_" gradientUnits="userSpaceOnUse" x1="223.792" y1="616.4173" x2="217.95" y2="731.6981">
			<stop  offset="0" style="stop-color:#FFFFFF"/>
			<stop  offset="1" style="stop-color:#FFFFFF;stop-opacity:0"/>
		</linearGradient>
		<path class="st55" d="M220.7,747.4L220.7,747.4l-3.6,2.4l-0.5,0.3l-0.8,0.5c-0.2-0.2-0.4-0.3-0.6-0.5c-0.8-0.7-1.6-1.4-2.5-2.1
			l1.1-0.7l0.2-0.1l4.6-3c0.3-0.2,0.8-0.3,1.1-0.3c0.6,0,1.1,0.3,1.5,0.8c0.1,0.2,0.2,0.3,0.2,0.5c0,0,0,0,0,0
			C221.7,746.1,221.4,747,220.7,747.4z"/>
		<linearGradient id="SVGID_46_" gradientUnits="userSpaceOnUse" x1="229.3459" y1="616.3743" x2="223.4898" y2="731.9329">
			<stop  offset="0" style="stop-color:#FFFFFF"/>
			<stop  offset="1" style="stop-color:#FFFFFF;stop-opacity:0"/>
		</linearGradient>
		<path class="st56" d="M224.2,755.8c-0.1,0.4-0.4,0.7-0.7,1l-0.1,0c-0.2-0.1-0.4-0.3-0.6-0.5c-0.9-0.7-1.7-1.4-2.6-2l1.1-0.8
			c0,0,0,0,0.1,0c0.9-0.5,2-0.3,2.5,0.6c0.1,0.2,0.2,0.3,0.2,0.5C224.4,755,224.4,755.4,224.2,755.8z"/>
	</g>
	<linearGradient id="SVGID_47_" gradientUnits="userSpaceOnUse" x1="98.8057" y1="428.1445" x2="151.7881" y2="428.1445">
		<stop  offset="2.645503e-03" style="stop-color:#C190EF"/>
		<stop  offset="0.2652" style="stop-color:#CD8AE3"/>
		<stop  offset="0.7391" style="stop-color:#EC7AC3"/>
		<stop  offset="0.996" style="stop-color:#FF70AF"/>
	</linearGradient>
	<circle class="st57" cx="125.3" cy="428.1" r="26.5"/>
	<linearGradient id="SVGID_48_" gradientUnits="userSpaceOnUse" x1="578.2416" y1="618.3549" x2="263.8134" y2="374.0358">
		<stop  offset="1.343419e-03" style="stop-color:#DA42FB"/>
		<stop  offset="3.018652e-02" style="stop-color:#100D83;stop-opacity:0.97"/>
		<stop  offset="1" style="stop-color:#75F0FD;stop-opacity:0"/>
	</linearGradient>
	<path class="st58" d="M545.2,288.2c1.9,2,3.9,4.1,5.8,6.1c-2.2,7.9-4.9,15.9-7.9,23.8c-20.1,52-49,100.6-85.1,143.1
		c-38.9,45.7-87.4,84.9-144.5,103.7c-55.7,18.3-115.8,16.3-174.2,11.7c-7.2-0.6-14.6-1.3-21.9-2.6c-0.3-2.2-0.5-4.4-0.7-6.7
		c-1.4-15-1.6-30.1-0.9-45.1c0.1-2.3,0.2-4.6,0.4-6.9c0-0.9,0.1-1.8,0.2-2.7c0.6-7.9,1.4-15.8,2.3-23.7c0.1-1,0.3-2.1,0.4-3.1
		c0.6-4.6,1.3-9.1,2-13.7c4.3-26.8,10.6-53.4,17.5-79.6c2.8-10.5,5.7-21,8.9-31.4c3.2-10.5,6.7-21,10.5-31.2
		c4.8-12.7,10.1-25.1,16.3-37c2-3.9,4.1-7.8,6.3-11.6c0.9-1.5,1.7-2.9,2.6-4.3c2.5-4.1,5.1-8.1,7.8-12c1.9-2.8,3.9-5.5,6-8.2
		c1.2-1.5,2.4-3.1,3.7-4.6c6.5-8,13.7-15.5,21.5-22.4c5.9-5.1,12-9.8,18.4-13.9c15.2-9.9,31.7-17.2,49.1-21.9
		c2.8-0.8,5.7-1.5,8.5-2.2c2.8-0.7,5.7-1.2,8.6-1.8c1.2-0.2,2.3-0.4,3.5-0.6c3.5-0.6,7-1.1,10.5-1.4c2.7-0.3,5.4-0.6,8.1-0.8
		c2.3-0.2,4.7-0.3,7-0.4c35.1-1.4,71.2,5.7,104,19.9c1.5,0.7,3.1,1.4,4.6,2.1c0.6,0.3,1.3,0.6,1.9,0.9c1.9,0.9,3.8,1.8,5.7,2.8
		c1.5,0.7,2.9,1.5,4.4,2.2c1.3,0.6,2.5,1.3,3.8,2c11.3,6.2,22.1,13.4,32.2,21.3c6,4.8,11.8,9.8,17.4,14.9c6.6,6.1,13,12.4,19.4,18.8
		c3.6,3.6,7.1,7.2,10.6,10.9C541.6,284.5,543.4,286.3,545.2,288.2z"/>
	<linearGradient id="SVGID_49_" gradientUnits="userSpaceOnUse" x1="557.8765" y1="154.9134" x2="560.3065" y2="154.9134">
		<stop  offset="1.329352e-03" style="stop-color:#550053"/>
		<stop  offset="1" style="stop-color:#94EBFF;stop-opacity:0"/>
	</linearGradient>
	<path class="st59" d="M557.9,146.6l2.4,16.6c-0.4-2.4-0.9-4.8-1.5-7.2C558.5,152.9,558.2,149.8,557.9,146.6z"/>
	<linearGradient id="SVGID_50_" gradientUnits="userSpaceOnUse" x1="362.6267" y1="911.5922" x2="398.7804" y2="705.5161">
		<stop  offset="0.1987" style="stop-color:#000000"/>
		<stop  offset="0.8207" style="stop-color:#000000;stop-opacity:0"/>
	</linearGradient>
	<path class="st60" d="M631.8,533.4l-93.1,250.9c-11.4-1.5-22.4-0.8-34.6-2.9c-7.9-1.3-15.9-2.7-24-4.1
		c-51.8-9.1-106.9-20.8-148.8-30.3c-1.4-0.3-2.8-0.6-4.1-0.9c-2.1-0.5-4.1-0.9-6.1-1.4c-1.4-0.3-2.8-0.6-4.1-0.9c-0.1,0-0.1,0-0.2,0
		c-1-0.2-2-0.5-3-0.7c-0.6-0.2-1.2-0.3-1.8-0.4c-3.1-0.7-6-1.4-8.9-2.1c-7.5-1.8-14.3-3.4-20-4.8c-12.9-3.2-30.7-6-50.9-8.5
		c-3.4-0.4-6.9-0.8-10.4-1.2l-2-0.2c-2.9-0.3-5.8-0.6-8.7-1c-2-0.2-4-0.4-6-0.6c-2.9-0.3-5.9-0.6-8.9-0.9c-0.4,0-0.8-0.1-1.2-0.1
		c-0.7-0.1-1.4-0.1-2.1-0.2l72.3-241.6L631.8,533.4z"/>
	<linearGradient id="SVGID_51_" gradientUnits="userSpaceOnUse" x1="686.1112" y1="633.9023" x2="547.4861" y2="521.3026">
		<stop  offset="0.1987" style="stop-color:#000000"/>
		<stop  offset="0.8207" style="stop-color:#000000;stop-opacity:0"/>
	</linearGradient>
	<polygon class="st61" points="610.2,506.2 631.6,551.4 628.7,584.5 569.1,604.9 526.8,465.8 	"/>
	<linearGradient id="SVGID_52_" gradientUnits="userSpaceOnUse" x1="616.158" y1="605.2991" x2="579.7869" y2="634.2367">
		<stop  offset="0.1987" style="stop-color:#000000"/>
		<stop  offset="0.8207" style="stop-color:#000000;stop-opacity:0"/>
	</linearGradient>
	<polygon class="st62" points="586.1,622.2 588.4,604.1 579.6,589.3 530.9,635.5 558.3,669.4 604.5,659.7 	"/>
	<linearGradient id="SVGID_53_" gradientUnits="userSpaceOnUse" x1="632.2975" y1="784.3035" x2="396.8942" y2="691.2371">
		<stop  offset="0.1987" style="stop-color:#000000"/>
		<stop  offset="0.8207" style="stop-color:#000000;stop-opacity:0"/>
	</linearGradient>
	<polygon class="st63" points="456.5,575.4 475.3,622.6 482.1,804.5 357.4,815 295.8,552.8 	"/>
	<linearGradient id="SVGID_54_" gradientUnits="userSpaceOnUse" x1="413.7621" y1="702.0337" x2="543.7946" y2="657.1415">
		<stop  offset="0.1987" style="stop-color:#000000"/>
		<stop  offset="0.8207" style="stop-color:#000000;stop-opacity:0"/>
	</linearGradient>
	<polygon class="st64" points="470.1,560.5 460.4,610.3 487.6,790.3 579.4,766.9 623.8,508.3 	"/>
	<linearGradient id="SVGID_55_" gradientUnits="userSpaceOnUse" x1="461.0801" y1="505.3764" x2="461.0801" y2="803.0338">
		<stop  offset="4.212625e-02" style="stop-color:#7C24C7;stop-opacity:0.3"/>
		<stop  offset="0.1656" style="stop-color:#7523BD;stop-opacity:0.3836"/>
		<stop  offset="0.375" style="stop-color:#6120A2;stop-opacity:0.5254"/>
		<stop  offset="0.6447" style="stop-color:#411C77;stop-opacity:0.7081"/>
		<stop  offset="0.9281" style="stop-color:#1A1642;stop-opacity:0.9"/>
	</linearGradient>
	<path class="st65" d="M782.3,649c-0.6,0.5-1.2,1-1.9,1.5c-1.9,1.5-3.8,2.9-5.7,4.4c-0.6,0.5-1.3,1-1.9,1.4
		c-1.5,1.2-3.1,2.3-4.6,3.5c-8.3,6.2-16.9,12.3-25.7,18.3c-8.9,6-18,11.9-27.3,17.7c-1.8,1.1-3.6,2.2-5.4,3.3h0
		c-0.2,0.1-0.4,0.3-0.6,0.4c-1.8,1.1-3.6,2.2-5.4,3.2c-1.2,0.7-2.4,1.5-3.6,2.2c-1.1,0.6-2.1,1.3-3.2,1.9c-0.7,0.4-1.4,0.9-2.1,1.3
		c-1.2,0.7-2.5,1.4-3.7,2.1c-1.8,1-3.6,2.1-5.4,3.1c-1.2,0.7-2.5,1.4-3.7,2.1c0,0,0,0,0,0c-5.1,2.9-10.3,5.8-15.5,8.6
		c-0.5,0.3-1,0.5-1.4,0.8c-2.2,1.2-4.5,2.4-6.8,3.6c-8.2,4.4-16.4,8.6-24.6,12.8c-1.2,0.6-2.5,1.3-3.8,1.9
		c-10.4,5.2-20.8,10.2-31.1,15c-10.7,5-21.3,9.8-31.7,14.3c-6.7,2.9-13.2,5.7-19.7,8.3c-4.3,1.8-8.6,3.5-12.8,5.2c0,0,0,0,0,0
		c-11.2-1.5-22.9-3.3-35-5.2c-7.9-1.3-15.9-2.6-24-4c-52.8-9.1-108.9-20.9-150.9-30.3c-1.4-0.3-2.8-0.6-4.2-0.9
		c-2.1-0.5-4.1-0.9-6-1.4c-1.4-0.3-2.8-0.6-4.1-0.9c-0.9-0.2-1.7-0.4-2.6-0.6c-1.2-0.3-2.4-0.6-3.6-0.8c-2.1-0.5-4.2-1-6.2-1.4
		c-4.7-1.1-9.1-2.1-13.1-3.1h0c-1.2-0.3-2.3-0.6-3.3-0.8c-0.8-0.2-1.6-0.4-2.4-0.6c-11.8-2.9-27.9-5.5-46.1-7.9l-5.6-0.7
		c-3.3-0.4-6.6-0.8-10-1.2c-1.3-0.1-2.5-0.3-3.8-0.4c-1.3-0.1-2.5-0.3-3.8-0.4c-1.6-0.2-3.3-0.3-4.9-0.5c-2-0.2-4-0.4-6-0.6
		c-2.9-0.3-5.9-0.6-8.9-0.9c-0.3,0-0.6-0.1-0.9-0.1c-0.2-0.2-0.4-0.5-0.6-0.7c-0.5-0.6-1-1.1-1.6-1.7c-0.9-1-1.7-1.9-2.6-2.9
		c-1.7-1.9-3.3-3.9-5-5.8c-1-1.2-2-2.5-3-3.7c-3.4-4.2-6.7-8.6-9.8-13c-1.8-2.6-3.6-5.1-5.4-7.8c-2.3-3.5-4.6-7.1-6.8-10.7
		c-5.4-9-10.3-18.2-14.6-27.8H782.3z"/>
	<g class="st18">
		<path class="st44" d="M427.9,649.6c0,0-29-31.3-43.5-32.5c-14.5-1.2-18.7-2.6-20.5-5.9c-1.8-3.3-7.8-7.5-15.5-7.5
			s-16.9-0.9-21.9-4s-9.2-9.2-19.1-6.1s-25.4,15-25.4,15l9.9,18.6l-2.1,18.8L427.9,649.6z"/>
		<linearGradient id="SVGID_56_" gradientUnits="userSpaceOnUse" x1="389.4932" y1="526.4603" x2="99.7857" y2="665.1588">
			<stop  offset="4.212625e-02" style="stop-color:#8A28DB"/>
			<stop  offset="0.1872" style="stop-color:#8432DA"/>
			<stop  offset="0.4331" style="stop-color:#734DD7"/>
			<stop  offset="0.7478" style="stop-color:#5878D3"/>
			<stop  offset="0.9987" style="stop-color:#3F9FCF"/>
		</linearGradient>
		<path class="st66" d="M415.3,649.9l-277.7-1.8c-9.2-20.7-15.8-42.6-19.1-65.2c-0.3-2.1-0.6-4.1-0.8-6.2c-0.4-3.1-0.7-6.3-1-9.4
			c-1.4-15-1.6-30.1-0.9-45.1c7.1-4.1,16.5-8.7,22.1-8.1c9.7,1.1,40.5,46.7,46.5,45.8c6-0.9,14.3-11.7,23-10.1
			c8.7,1.5,11,10.1,19.3,25.5c8.3,15.3,14.1,17.2,25.9,17.7c11.8,0.5,25.9-8.3,35.3-6.3c3.6,0.8,8.3,4.9,13.3,9.8
			c8,7.8,16.8,17.5,23,18.5c10.1,1.6,16.7-2.5,32.3,0c12.3,2,41.7,22.6,53.6,31.3c0.5,0.3,0.9,0.7,1.4,1
			C413.9,648.8,415.3,649.9,415.3,649.9z"/>
		<linearGradient id="SVGID_57_" gradientUnits="userSpaceOnUse" x1="279.1772" y1="691.0385" x2="269.2783" y2="579.5107">
			<stop  offset="4.212625e-02" style="stop-color:#8A28DB"/>
			<stop  offset="0.2458" style="stop-color:#8027D3"/>
			<stop  offset="0.5911" style="stop-color:#6525BC"/>
			<stop  offset="0.9987" style="stop-color:#3E229B"/>
		</linearGradient>
		<path class="st67" d="M426.9,649.9l-289.1-1.6c0-0.1-0.1-0.1-0.1-0.2c-9.2-20.7-15.8-42.6-19.1-65.2c-0.3-2.1-0.6-4.1-0.8-6.2
			c13.1,8.7,33.7,21.7,40.6,21.7c10.4,0,12.2-14.3,25.5-13.5c13.3,0.8,37.1,32.4,48.1,32.8c11,0.4,28.4-9.3,39.4-10
			c3.1-0.2,7.2,1,11.7,3c11.5,5,25.9,14.6,34.7,16.2c12.2,2.2,16.2,2,26.7,0.1c7.2-1.3,42.7,11.1,64.3,19.1c0.9,0.3,1.8,0.7,2.7,1
			C419.9,650.2,426.9,649.9,426.9,649.9z"/>
		<linearGradient id="SVGID_58_" gradientUnits="userSpaceOnUse" x1="262.6466" y1="831.8253" x2="273.8178" y2="578.3262">
			<stop  offset="0.1987" style="stop-color:#000000"/>
			<stop  offset="0.8207" style="stop-color:#000000;stop-opacity:0"/>
		</linearGradient>
		<path class="st68" d="M426.9,649.9l-289.1-1.6c0-0.1-0.1-0.1-0.1-0.2c-9.2-20.7-15.8-42.6-19.1-65.2c-0.3-2.1-0.6-4.1-0.8-6.2
			c13.1,8.7,33.7,21.7,40.6,21.7c10.4,0,12.2-14.3,25.5-13.5c13.3,0.8,37.1,32.4,48.1,32.8c11,0.4,28.4-9.3,39.4-10
			c3.1-0.2,7.2,1,11.7,3c11.5,5,25.9,14.6,34.7,16.2c12.2,2.2,16.2,2,26.7,0.1c7.2-1.3,42.7,11.1,64.3,19.1c0.9,0.3,1.8,0.7,2.7,1
			C419.9,650.2,426.9,649.9,426.9,649.9z"/>
	</g>
	<linearGradient id="SVGID_59_" gradientUnits="userSpaceOnUse" x1="586.876" y1="582.7349" x2="454.5392" y2="922.7034">
		<stop  offset="2.645503e-03" style="stop-color:#F2D0EF"/>
		<stop  offset="0.1927" style="stop-color:#F4C4E7"/>
		<stop  offset="0.5372" style="stop-color:#F8A4D2"/>
		<stop  offset="0.9941" style="stop-color:#FF70AF"/>
		<stop  offset="0.996" style="stop-color:#FF70AF"/>
	</linearGradient>
	<path class="st69" d="M760.2,715.4c-29.5,21.2-64.5,43.7-105.8,67.4c-45.1,25.9-93.7,48.2-145,58.4
		C424.7,858,342,825.5,293.1,759.5c59.2-26.5,149-58.5,253.3-68.5C641.9,681.8,713.2,697.6,760.2,715.4z"/>
	<linearGradient id="SVGID_60_" gradientUnits="userSpaceOnUse" x1="479.7229" y1="92.1683" x2="486.7024" y2="811.064">
		<stop  offset="0.3216" style="stop-color:#FFFFFF;stop-opacity:0.3"/>
		<stop  offset="0.9281" style="stop-color:#FFFFFF"/>
	</linearGradient>
	<path class="st70" d="M843.7,572.8c-8,20.7-21.5,40.6-40.8,58c-5.1,4.6-10.5,9.2-16.1,13.8c-1.2,1-2.5,2-3.8,3.1
		c-0.8,0.7-1.6,1.3-2.5,2l0,0l-642.9-1.3l0.6,1.3c-0.2-0.4-0.4-0.9-0.6-1.3c0-0.1-0.1-0.1-0.1-0.2c-9.2-20.7-15.8-42.6-19.1-65.2
		c-0.3-2.1-0.6-4.1-0.8-6.2c-0.4-3.1-0.7-6.3-1-9.4c-1.4-15-1.6-30.1-0.9-45.1c0.1-2.3,0.2-4.6,0.4-6.9c0-0.9,0.1-1.8,0.2-2.7
		c0.6-7.9,1.4-15.8,2.3-23.7c0.1-1,0.3-2.1,0.4-3.1c0.6-4.6,1.3-9.1,2-13.7c4.3-26.8,10.6-53.4,17.5-79.6c2.8-10.5,5.7-21,8.9-31.4
		c3.2-10.5,6.7-21,10.5-31.2c4.8-12.7,10.1-25.1,16.3-37c2-3.9,4.1-7.8,6.3-11.6c0.9-1.5,1.7-2.9,2.6-4.3c2.5-4.1,5.1-8.1,7.8-12
		c1.9-2.8,3.9-5.5,6-8.2c1.2-1.5,2.4-3.1,3.7-4.6c6.5-8,13.7-15.5,21.5-22.4c5.9-5.1,12-9.8,18.4-13.9c15.2-9.9,31.7-17.2,49.1-21.9
		c2.8-0.8,5.7-1.5,8.5-2.2c2.8-0.7,5.7-1.2,8.6-1.8c1.2-0.2,2.3-0.4,3.5-0.6c3.5-0.6,7-1.1,10.5-1.4c2.7-0.3,5.4-0.6,8.1-0.8
		c2.3-0.2,4.7-0.3,7-0.4c35.1-1.4,71.2,5.7,104,19.9c1.5,0.7,3.1,1.4,4.6,2.1c0.6,0.3,1.3,0.6,1.9,0.9c1.9,0.9,3.8,1.8,5.7,2.8
		c1.5,0.7,2.9,1.5,4.4,2.2c1.3,0.6,2.5,1.3,3.8,2c11.3,6.2,22.1,13.4,32.2,21.3c6,4.8,11.8,9.8,17.4,14.9c6.6,6.1,13,12.4,19.4,18.8
		c3.6,3.6,7.1,7.2,10.6,10.9c1.8,1.8,3.5,3.7,5.3,5.5c3,3.2,6,6.3,9.1,9.4c1.2,1.3,2.5,2.6,3.7,3.9c1.1,1.1,2.2,2.2,3.3,3.3
		c2.6,2.7,5.2,5.3,7.9,7.9c0.7,0.7,1.4,1.4,2.1,2c2.1,2.1,4.3,4.2,6.5,6.3c2.4,2.3,4.9,4.6,7.4,6.9c5.9,5.3,11.9,10.4,18.2,15.2
		c9.6,7.4,19.6,14.1,30.5,19.7c0.2,0.1,0.4,0.2,0.7,0.3c2.6,1.4,5.3,2.7,8,3.9c2.3,1.1,4.6,2.1,7,3c0.1,0,0.2,0.1,0.2,0.1
		c0.9,0.4,1.8,0.7,2.6,1.1c2.8,1.1,5.7,2.2,8.6,3.2c7.9,2.8,16,5.3,24.2,7.5c5.1,1.4,10.2,2.7,15.3,4.1c1.5,0.4,3.1,0.8,4.6,1.2
		l1.9,0.5c1.9,0.5,3.8,0.9,5.7,1.4l1.1,0.3c1.1,0.3,2.2,0.5,3.3,0.8c1.3,0.3,2.5,0.6,3.8,1c2.1,0.5,4.2,1,6.2,1.6
		c1.5,0.4,3.1,0.8,4.6,1.2c0.6,0.2,1.3,0.3,1.9,0.5c1.9,0.5,3.8,1,5.7,1.5c1.5,0.4,2.9,0.8,4.4,1.2c1.3,0.4,2.5,0.7,3.8,1.1
		c2.4,0.7,4.8,1.4,7.2,2.2c6.5,2.1,12.7,4.4,18.6,7.1c4.4,2,8.6,4.1,12.6,6.4c19.6,11.2,35.1,25.9,46.3,42.8c0.4,0.7,0.9,1.4,1.3,2
		h0C854.4,492.5,858.7,534.1,843.7,572.8z"/>
	<g>
		<pattern  id="SVGID_61_" xlink:href="#New_Pattern_Swatch_23" patternTransform="matrix(1.5 0 0 1.5 3638.8486 3196.5481)">
		</pattern>
		<path class="st71" d="M663.5,725.4c-2.2,1.2-4.5,2.4-6.8,3.6c-8.2,4.4-16.4,8.6-24.6,12.8l-0.3-1.9l-2.3-16l-0.6-4.1l-3.6-24.1
			l0.3,13.9l1.1,13.8l1.6,20.3c-10.4,5.2-20.8,10.2-31.1,15l-7.7-17.1l-1.2-25.2l-1.3-27.2l-0.7-14.1l-0.6-11.7l-0.4-9.4l34.2-1.6
			l30.6-1.4l3.3,6.5l0.2,1.4l3,20.7l2.1,14.4L663.5,725.4z"/>
		<linearGradient id="SVGID_62_" gradientUnits="userSpaceOnUse" x1="612.6183" y1="621.0882" x2="629.326" y2="755.3255">
			<stop  offset="0.3067" style="stop-color:#1B0B31"/>
			<stop  offset="1" style="stop-color:#2E1C56"/>
		</linearGradient>
		<path class="st72" d="M663.5,725.4c-2.2,1.2-4.5,2.4-6.8,3.6c-8.2,4.4-16.4,8.6-24.6,12.8l-0.3-1.9l-2.3-16l-0.6-4.1l-3.6-24.1
			l0.3,13.9l1.1,13.8l1.6,20.3c-10.4,5.2-20.8,10.2-31.1,15l-7.7-17.1l-1.2-25.2l-1.3-27.2l-0.7-14.1l-0.6-11.7l-0.4-9.4l34.2-1.6
			l30.6-1.4l3.3,6.5l0.2,1.4l3,20.7l2.1,14.4L663.5,725.4z"/>
		<linearGradient id="SVGID_63_" gradientUnits="userSpaceOnUse" x1="673.3886" y1="785.2178" x2="618.1043" y2="695.6687">
			<stop  offset="0.3067" style="stop-color:#1B0B31"/>
			<stop  offset="1" style="stop-color:#2E1C56"/>
		</linearGradient>
		<path class="st73" d="M663.5,725.4c-2.2,1.2-4.5,2.4-6.8,3.6c-8.2,4.4-16.4,8.6-24.6,12.8l-0.3-1.9l-2.3-16l-0.6-4.1l-3.6-24.1
			l0.3,13.9l1.1,13.8l1.6,20.3c-10.4,5.2-20.8,10.2-31.1,15l-7.7-17.1l-1.2-25.2l-1.3-27.2l-0.7-14.1l-0.6-11.7l-0.4-9.4l34.2-1.6
			l30.6-1.4l3.3,6.5l0.2,1.4l3,20.7l2.1,14.4L663.5,725.4z"/>
		<linearGradient id="SVGID_64_" gradientUnits="userSpaceOnUse" x1="621.2726" y1="634.4058" x2="615.8762" y2="689.7194">
			<stop  offset="0.1987" style="stop-color:#000000"/>
			<stop  offset="0.8207" style="stop-color:#000000;stop-opacity:0"/>
		</linearGradient>
		<path class="st74" d="M578.7,661.2l-1.7,4.9c0,0,22.9,7.8,45.4,6.6c22.5-1.2,37.3-11.5,37.3-11.5l-2.4-4.6L578.7,661.2z"/>
		<g>
			<path class="st75" d="M596.9,550.9c-0.6,1.2-1.7,2.2-2.8,3.1c-3.3,2.9-6,6.5-7.1,10.8c-1.1,4.2-0.3,9,2.6,12.3
				c0.6,0.7,1.3,1.3,2.2,1.5c1,0.2,2-0.1,2.9-0.4c7.5-2.5,14.7-6.5,19.6-12.6c4.2-5.2,6.6-11.5,7.9-18.1c-6.2,5.4-17.2,6.1-23.7,4
				C598,551.4,597.4,551.2,596.9,550.9z"/>
			
				<linearGradient id="SVGID_65_" gradientUnits="userSpaceOnUse" x1="1953.3499" y1="1171.6633" x2="1939.5743" y2="1199.2142" gradientTransform="matrix(-0.5459 -0.8379 -0.8379 0.5459 2665.8875 1532.6885)">
				<stop  offset="0.1987" style="stop-color:#000000"/>
				<stop  offset="0.8207" style="stop-color:#000000;stop-opacity:0"/>
			</linearGradient>
			<path class="st76" d="M596.9,550.9c-0.6,1.2-1.7,2.2-2.8,3.1c-3.3,2.9-6,6.5-7.1,10.8c-1.1,4.2-0.3,9,2.6,12.3
				c0.6,0.7,1.3,1.3,2.2,1.5c1,0.2,2-0.1,2.9-0.4c7.5-2.5,14.7-6.5,19.6-12.6c4.2-5.2,6.6-11.5,7.9-18.1c-6.2,5.4-17.2,6.1-23.7,4
				C598,551.4,597.4,551.2,596.9,550.9z"/>
		</g>
		<path class="st11" d="M620.1,561.6c0,0-28,0.6-36,6.2c-7.9,5.5-22.8,33.2-23.6,40.1c-0.8,6.9,7.3,19,7.3,19s13.7-3.8,19.3-14.5
			c-1.6,19.5-8.4,48.8-8.4,48.8s47.8,17.1,78.7-4.6c-7.3-20.5-8.9-22.3-8.9-22.3l14.3-2.4c0,0,4.5-7.6,2.9-14.5
			C664.2,610.5,656.1,555.5,620.1,561.6z"/>
		<linearGradient id="SVGID_66_" gradientUnits="userSpaceOnUse" x1="560.4811" y1="614.3881" x2="666.0754" y2="614.3881">
			<stop  offset="0" style="stop-color:#E0DEF4"/>
			<stop  offset="1" style="stop-color:#E0DEF4;stop-opacity:0.1"/>
		</linearGradient>
		<path class="st77" d="M620.1,561.6c0,0-28,0.6-36,6.2c-7.9,5.5-22.8,33.2-23.6,40.1c-0.8,6.9,7.3,19,7.3,19s13.7-3.8,19.3-14.5
			c-1.6,19.5-8.4,48.8-8.4,48.8s47.8,17.1,78.7-4.6c-7.3-20.5-8.9-22.3-8.9-22.3l14.3-2.4c0,0,4.5-7.6,2.9-14.5
			C664.2,610.5,656.1,555.5,620.1,561.6z"/>
		<linearGradient id="SVGID_67_" gradientUnits="userSpaceOnUse" x1="675.7155" y1="666.4651" x2="571.8035" y2="582.9199">
			<stop  offset="0" style="stop-color:#9990FF"/>
			<stop  offset="1" style="stop-color:#D6D4E8"/>
		</linearGradient>
		<path class="st78" d="M620.1,561.6c0,0-28,0.6-36,6.2c-7.9,5.5-22.8,33.2-23.6,40.1c-0.8,6.9,7.3,19,7.3,19s13.7-3.8,19.3-14.5
			c-1.6,19.5-8.4,48.8-8.4,48.8s47.8,17.1,78.7-4.6c-7.3-20.5-8.9-22.3-8.9-22.3l14.3-2.4c0,0,4.5-7.6,2.9-14.5
			C664.2,610.5,656.1,555.5,620.1,561.6z"/>
		<path class="st79" d="M641.8,596.3l-10.1-16.5l0,0c3.3-17.2-4.4-18.8-4.4-18.8s0,0-7.1,0.6c4,1.4,4.2,5.9,3.7,9.3l-20.3,1.8
			c-0.9-0.8-1.9-1.8-2.6-3c-1.1-1.9-2.4-4.6-2.2-6.2c-1.4-0.4-9.3,2-9.3,2s7.1,12.2,9.9,17.8l-8.2,20.5l0.9,25.9l-6-7.5l-1,6.6
			l7.3,10.8l5.1,9.2l48.5-4.3l2.5-10.2L641.8,596.3z"/>
		<g>
			<path class="st80" d="M617.4,518.6c8.3,2.8,12.2,13.4,8.7,23.6c-0.8,2.2-2.1,4.1-3.8,5.5c-6.2,5.4-17.2,6.1-23.7,4
				c-0.6-0.2-1.2-0.4-1.7-0.7c-6.2-3.1-3.9-9.5-0.7-18.9C599.6,521.8,609.2,515.8,617.4,518.6z"/>
			
				<linearGradient id="SVGID_68_" gradientUnits="userSpaceOnUse" x1="1949.4657" y1="1218.2379" x2="1957.0208" y2="1175.2126" gradientTransform="matrix(-0.5459 -0.8379 -0.8379 0.5459 2665.8875 1532.6885)">
				<stop  offset="0.1987" style="stop-color:#000000"/>
				<stop  offset="0.8207" style="stop-color:#000000;stop-opacity:0"/>
			</linearGradient>
			<path class="st81" d="M617.4,518.6c8.3,2.8,12.2,13.4,8.7,23.6c-0.8,2.2-2.1,4.1-3.8,5.5c-6.2,5.4-17.2,6.1-23.7,4
				c-0.6-0.2-1.2-0.4-1.7-0.7c-6.2-3.1-3.9-9.5-0.7-18.9C599.6,521.8,609.2,515.8,617.4,518.6z"/>
			<path class="st82" d="M631.6,543.6c1-1,1.8-2.8,2.5-4.1c1-1.9,1.3-4,1.5-6.2c0.3-3.4,0.4-6.9-1.2-9.9c-1.5-2.8-4.3-4.7-7.1-6.3
				c-4.4-2.6-9.2-5-14.3-4.9c-2.1,0.1-4.2,0.6-5.8,2c-1.6,1.4-2.5,3.7-1.7,5.6c0.5,1.5,1.8,2.5,2.7,3.7c2.5,3.3,2.4,7.8,2.1,12
				c-0.1,1.5,0.3,3.6,1.8,3.5c1.2-0.1,1.7-1.5,2.8-2c1.5-0.6,3,1.1,3,2.7c0,1.6-0.8,3.1-1.2,4.6c-0.7,2.7,0.5,9.1,4.1,9
				C623.6,553.3,629.6,545.6,631.6,543.6z"/>
			
				<linearGradient id="SVGID_69_" gradientUnits="userSpaceOnUse" x1="1936.559" y1="1168.8767" x2="1977.2637" y2="1168.8767" gradientTransform="matrix(-0.5459 -0.8379 -0.8379 0.5459 2665.8875 1532.6885)">
				<stop  offset="0.1987" style="stop-color:#000000"/>
				<stop  offset="0.8207" style="stop-color:#000000;stop-opacity:0"/>
			</linearGradient>
			<path class="st83" d="M629,545.3c1-1,1.8-2.8,2.5-4.1c1-1.9,1.3-4,1.5-6.2c0.3-3.4,0.4-6.9-1.2-9.9c-1.5-2.8-4.3-4.7-7.1-6.3
				c-4.4-2.6-9.2-5-14.3-4.9c-2.1,0.1-4.2,0.6-5.8,2c-1.6,1.4-2.5,3.7-1.7,5.6c0.5,1.5,1.8,2.5,2.7,3.7c2.5,3.3,2.4,7.8,2.1,12
				c-0.1,1.5,0.3,3.6,1.8,3.5c1.2-0.1,1.7-1.5,2.8-2c1.5-0.6,3,1.1,3,2.7c0,1.6-0.8,3.1-1.2,4.6c-0.7,2.7,0.5,9.1,4.1,9
				C621,555,627,547.3,629,545.3z"/>
		</g>
		<linearGradient id="SVGID_70_" gradientUnits="userSpaceOnUse" x1="618.4778" y1="651.0776" x2="571.0833" y2="623.4461">
			<stop  offset="0.1987" style="stop-color:#000000"/>
			<stop  offset="0.8207" style="stop-color:#000000;stop-opacity:0"/>
		</linearGradient>
		<polygon class="st84" points="592,629.7 597.5,648.8 585.1,628.8 586.1,622.2 		"/>
		<linearGradient id="SVGID_71_" gradientUnits="userSpaceOnUse" x1="616.0258" y1="601.2776" x2="592.0078" y2="557.9877">
			<stop  offset="0.1987" style="stop-color:#000000"/>
			<stop  offset="0.8207" style="stop-color:#000000;stop-opacity:0"/>
		</linearGradient>
		<polygon class="st85" points="599.3,583.3 603.6,572.7 599.3,558.9 588.4,561.2 589.4,565.5 		"/>
		<linearGradient id="SVGID_72_" gradientUnits="userSpaceOnUse" x1="614.5743" y1="585.6898" x2="633.2723" y2="564.8007">
			<stop  offset="0.1987" style="stop-color:#000000"/>
			<stop  offset="0.8207" style="stop-color:#000000;stop-opacity:0"/>
		</linearGradient>
		<path class="st86" d="M623.8,570.9l7.8,8.9c0,0,0.8-4.5,0.8-6.7c0-2.3,0-6-1.7-8.4c-1.8-2.4-7.3-2.2-7.3-2.2l0.6,6.1L623.8,570.9z
			"/>
		<linearGradient id="SVGID_73_" gradientUnits="userSpaceOnUse" x1="626.3708" y1="696.9135" x2="615.9644" y2="586.1593">
			<stop  offset="0.1987" style="stop-color:#000000"/>
			<stop  offset="0.8207" style="stop-color:#000000;stop-opacity:0"/>
		</linearGradient>
		<polygon class="st87" points="597.5,648.8 646,644.6 648.5,634.4 641.8,596.3 591.1,603.8 592,629.7 		"/>
		<linearGradient id="SVGID_74_" gradientUnits="userSpaceOnUse" x1="642.8317" y1="672.8716" x2="604.5564" y2="567.2601">
			<stop  offset="0.1987" style="stop-color:#000000"/>
			<stop  offset="0.8207" style="stop-color:#000000;stop-opacity:0"/>
		</linearGradient>
		<polygon class="st88" points="591.1,603.8 641.8,596.3 631.7,579.8 623.8,570.9 603.6,572.7 		"/>
		<linearGradient id="SVGID_75_" gradientUnits="userSpaceOnUse" x1="663.1683" y1="537.4794" x2="581.6642" y2="573.8793">
			<stop  offset="0" style="stop-color:#FFF4C1"/>
			<stop  offset="1" style="stop-color:#FFD772"/>
		</linearGradient>
		<path class="st89" d="M641.7,566.4c0,0-20,4.3-44,2.4c-16.5-1.3-13.9-6.9-12.8-11.7c0.2-1,0.9-2.4,1.9-3.6v0
			c1.4-1.8,3.4-3.2,5.3-3c0.8,0.1,4.1-0.1,4.9,0.4c3,2,24.3,1.4,34.6,0.5c1.9-0.2,3.6,0.8,4.1,2.2l1,2.2L641.7,566.4z"/>
		<linearGradient id="SVGID_76_" gradientUnits="userSpaceOnUse" x1="694.6992" y1="512.9833" x2="519.1234" y2="614.5211">
			<stop  offset="0" style="stop-color:#FFF4C1"/>
			<stop  offset="1" style="stop-color:#FFD772"/>
		</linearGradient>
		<path class="st90" d="M641.7,566.4c0,0-20,4.3-44,2.4c-16.5-1.3-13.9-6.9-12.8-11.7c0.2-1,0.9-2.4,1.9-3.6v0
			c1.4-1.8,3.4-3.2,5.3-3c0.8,0.1,4.1-0.1,4.9,0.4c3,2,24.3,1.4,34.6,0.5c1.9-0.2,3.6,0.8,4.1,2.2l1,2.2L641.7,566.4z"/>
		<linearGradient id="SVGID_77_" gradientUnits="userSpaceOnUse" x1="621.2013" y1="522.3451" x2="605.7185" y2="575.1685">
			<stop  offset="0.1987" style="stop-color:#000000"/>
			<stop  offset="0.8207" style="stop-color:#000000;stop-opacity:0"/>
		</linearGradient>
		<path class="st91" d="M636.7,555.8c0,0-15.7,1.2-30.8,0.8s-19.2-3.1-19.2-3.1v0c1.4-1.8,3.4-3.2,5.3-3c0.8,0.1,4.1-0.1,4.9,0.4
			c3,2,24.3,1.4,34.6,0.5c1.9-0.2,3.6,0.8,4.1,2.2L636.7,555.8z"/>
	</g>
	<path class="st8" d="M340.4,781.7l-30.2,20v2.6c-1-0.3-2-0.7-3-1v-1.7l-30-19.8c-0.7-0.5-0.9-1.4-0.4-2.1c0.5-0.7,1.4-0.9,2.1-0.4
		l28.3,18.7v-5.3l-27.8-18.3c-0.7-0.5-0.9-1.4-0.4-2.1c0.5-0.7,1.4-0.9,2.1-0.4l26.1,17.2v-5.3l-25.5-16.7c-0.7-0.5-0.9-1.4-0.4-2.1
		c0.5-0.7,1.4-0.9,2.1-0.4l23.9,15.6v-5.3l-23.3-15.2c-0.7-0.5-0.9-1.4-0.4-2.1c0.5-0.7,1.4-0.9,2.1-0.4l21.6,14.1v-5.3l-21-13.7
		c-0.7-0.4-0.9-1.4-0.4-2.1c0.5-0.7,1.4-0.9,2.1-0.4l19.4,12.6v-5.4l-18.8-12.1c-0.7-0.5-0.9-1.4-0.5-2.1c0.5-0.7,1.4-0.9,2.1-0.5
		l17.2,11.1v-5.4l-10.7-6.9l-5.9-3.8c-0.7-0.5-0.9-1.4-0.5-2.1c0.5-0.7,1.4-0.9,2.1-0.5l13.1,8.4l1.8,1.2v-5.4l-14.3-9.1
		c-0.7-0.5-0.9-1.4-0.5-2.1c0.4-0.7,1.4-0.9,2.1-0.5l12.7,8.1v-5.4l-12.1-7.5c-0.7-0.5-0.9-1.4-0.5-2.1c0.5-0.7,1.4-0.9,2.1-0.5
		l10.5,6.5v-5.4l-9.8-6c-0.7-0.4-0.9-1.4-0.5-2.1c0.4-0.7,1.4-0.9,2.1-0.5l8.3,5V712l-7.6-4.5c-0.7-0.4-1-1.4-0.5-2.1
		c0.4-0.7,1.4-1,2.1-0.5l6,3.6V703l-5.3-3c-0.7-0.4-1-1.3-0.6-2.1c0.4-0.7,1.3-1,2.1-0.6l3.8,2.1v-5.4l-3-1.4
		c-0.8-0.4-1.1-1.3-0.7-2c0.4-0.8,1.3-1.1,2-0.7l1.7,0.8v-5.5c0-0.8,0.7-1.5,1.5-1.5c0.8,0,1.5,0.7,1.5,1.5v5.6l1.9-0.9
		c0.8-0.4,1.7,0,2,0.7c0.4,0.8,0,1.7-0.7,2l-3.2,1.5v5.5l4.1-2.3c0.7-0.4,1.6-0.2,2.1,0.6c0.4,0.7,0.2,1.6-0.6,2.1l-5.5,3.1v5.4
		l6.3-3.7c0.7-0.4,1.6-0.2,2.1,0.5c0.4,0.7,0.2,1.6-0.5,2.1l-7.8,4.6v5.4l8.5-5.2c0.7-0.4,1.6-0.2,2.1,0.5s0.2,1.6-0.5,2.1
		l-10.1,6.2v5.4l10.7-6.7c0.7-0.5,1.6-0.2,2.1,0.5c0.5,0.7,0.2,1.6-0.5,2.1l-12.3,7.7v5.4l12.9-8.2c0.7-0.4,1.7-0.2,2.1,0.5
		c0.4,0.7,0.2,1.7-0.5,2.1l-14.5,9.2v5.4l0.2-0.1l15-9.6c0.7-0.5,1.6-0.3,2.1,0.5c0.4,0.7,0.3,1.6-0.5,2.1l-12.5,8l-4.3,2.8v5.4
		l10.4-6.7l6.9-4.5c0.7-0.5,1.7-0.3,2.1,0.5c0.5,0.7,0.3,1.6-0.4,2.1l-4.5,2.9l-14.6,9.4v5.3l19.6-12.7c0.7-0.5,1.6-0.3,2.1,0.4
		c0.4,0.7,0.3,1.7-0.5,2.1l-21.3,13.8v5.3l21.9-14.3c0.7-0.5,1.6-0.3,2.1,0.4c0.5,0.7,0.3,1.7-0.5,2.1l-23.5,15.4v5.3l24.1-15.8
		c0.7-0.5,1.7-0.3,2.1,0.4c0.5,0.7,0.3,1.6-0.4,2.1l-25.7,16.9v5.3l26.3-17.3c0.7-0.5,1.6-0.3,2.1,0.4c0.5,0.7,0.3,1.6-0.4,2.1
		l-28,18.4v5.3l28.5-18.9c0.7-0.5,1.6-0.3,2.1,0.4C341.3,780.3,341.1,781.3,340.4,781.7z"/>
	<path class="st9" d="M294.4,738.1c-1.2-0.3-2.4-0.6-3.6-0.8c-2.1-0.5-4.2-1-6.2-1.4c-4.7-1.1-9.1-2.1-13.1-3.1h0
		c-1.2-0.3-2.3-0.6-3.3-0.8c-0.8-0.2-1.6-0.4-2.4-0.6c-11.8-2.9-27.9-5.5-46.1-7.9l2.4-8.9l3.8-14.2H246l-18.1-6.4l0.9-3.4l4.4-16.4
		l21.8-81.3l16.3,60.4l3.3,12.2l8.2,30.2l1.1,4.2v0l0.5,1.9l1.2,4.5v0l1.2,4.2v0l0.3,1.2l3,11.2l0.5,1.9l0.8,3.1l1.2,4.6l0.8,3.1
		L294.4,738.1z"/>
	<path class="st3" d="M158.9,687.3c-1.8-2.7-3.5-5.4-5.2-8.1c-0.4-0.6-0.7-1.2-1.1-1.8l0.1-0.3l0.7-2l9.6-26l0.2-0.6l0-0.1l0-0.1
		l11-30l6.3-17.2l0.9-2.5l1.7,4.8L191,626l6,17.3l1.8,5.1l0,0.1l0.1,0.2l0.1,0.4l3.2,9.3l5.4,15.6v0l14.2,41.2l0.1,0.4v0l1.2,3.5
		l0.3,0.9l0.7,1.9l0.8,2.3l0.3,0.8l0.5,1.4v0l0.2,0.6l0,0.1l0.2,0.7l0.1,0.1v0l5.4,15.7l8.8,25.5c-0.1-0.1-0.2-0.1-0.3-0.2
		c-5.7-3.8-26.9-18.2-48.3-40.5c-4.8-5-18.2-21.1-18.2-21.1l0,0c-0.4-0.5-0.8-1-1.2-1.5c-2.5-3.1-4.8-6.2-7.1-9.4
		c-0.5-0.7-1-1.4-1.5-2.1L158.9,687.3z"/>
	<linearGradient id="SVGID_78_" gradientUnits="userSpaceOnUse" x1="213.1095" y1="717.3085" x2="213.1085" y2="717.3541">
		<stop  offset="0" style="stop-color:#FFFFFF"/>
		<stop  offset="1" style="stop-color:#FFFFFF;stop-opacity:0"/>
	</linearGradient>
	<path class="st92" d="M213.1,717.3C213.1,717.3,213.1,717.3,213.1,717.3L213.1,717.3C213.1,717.4,213.1,717.4,213.1,717.3
		L213.1,717.3z"/>
	<linearGradient id="SVGID_79_" gradientUnits="userSpaceOnUse" x1="185.8919" y1="628.4675" x2="182.484" y2="710.7438">
		<stop  offset="0" style="stop-color:#FFFFFF"/>
		<stop  offset="1" style="stop-color:#FFFFFF;stop-opacity:0"/>
	</linearGradient>
	<path class="st93" d="M158.9,687.3c0.1,0,0.1,0,0.2,0c0,0,0,0,0.1,0c0.4,0,0.8,0.1,1.1,0.3l1.7,1.1l17,10.9v-5.9v-0.8l-18-11.4
		c-0.4-0.3-0.7-0.7-0.8-1.1v0v0c-0.1-0.5-0.1-1,0.2-1.5c0.6-0.9,1.7-1.2,2.6-0.6l11.3,7.1l4.7,3v-5.9v-0.8l-4.7-2.9l-10.5-6.5
		c-0.4-0.3-0.7-0.7-0.8-1.1v0c-0.1-0.5-0.1-1,0.2-1.5c0.6-0.9,1.7-1.2,2.6-0.6l8.5,5.3l4.7,2.9v-5.9v0v-0.8l-4.7-2.9l-7.7-4.7
		c-0.4-0.3-0.7-0.7-0.8-1.1c0,0,0,0,0,0c-0.1-0.5-0.1-1,0.2-1.5c0.5-0.9,1.7-1.2,2.6-0.6l5.7,3.5l4.7,2.9v-6v-0.8l-4.7-2.8l-4.8-2.9
		c-0.4-0.3-0.7-0.7-0.9-1.1c0,0,0,0,0,0c-0.1-0.5-0.1-1,0.2-1.5c0.5-0.9,1.7-1.2,2.6-0.7l2.9,1.7l4.7,2.8V649v-0.3v-0.2v-0.1v0v-0.5
		l-4.7-2.6l-2-1.1c-0.5-0.3-0.8-0.7-0.9-1.2v0c-0.1-0.5-0.1-1,0.2-1.4c0.5-0.9,1.7-1.2,2.6-0.7l0.2,0.1l4.7,2.6v-6v0v-0.8l-3.8-1.8
		c-0.4-0.2-0.7-0.5-0.9-0.9c0-0.1-0.1-0.2-0.1-0.3v0v0c-0.1-0.4-0.1-0.8,0.1-1.2c0,0,0,0,0,0c0.4-0.9,1.6-1.3,2.5-0.9l2.1,1v-6.9
		c0-1,0.7-1.8,1.7-1.9c0.1,0,0.2,0,0.3,0c1.1,0,1.9,0.9,1.9,1.9v0.4v0.1v6.5l0,0h0l0.4-0.2l2-0.9c0.9-0.4,2.1-0.1,2.5,0.9
		c0.2,0.4,0.2,0.8,0.1,1.2v0c-0.1,0.6-0.5,1.1-1,1.4l-3.6,1.7l-0.5,0.2v6.8l0,0l0,0l0.4-0.2l4.7-2.6c0.9-0.5,2.1-0.2,2.6,0.7
		c0.2,0.4,0.3,0.8,0.2,1.3v0c-0.1,0.5-0.4,1-0.9,1.3l-6.5,3.6l-0.5,0.3v0.3v0v0.2v0.5v5.8l0,0l0,0l0.4-0.2l7.4-4.4
		c0.1-0.1,0.2-0.1,0.4-0.2c0.8-0.3,1.8,0,2.2,0.8c0.2,0.4,0.3,0.9,0.2,1.3v0v0c-0.1,0.5-0.4,1-0.9,1.3l-1.6,0.9l-7.8,4.6l-0.5,0.3
		v6.8l0,0l0,0l0.4-0.2l7.8-4.8l2.4-1.5c0.9-0.5,2.1-0.3,2.6,0.6c0.3,0.4,0.3,0.9,0.3,1.3v0v0c-0.1,0.5-0.4,0.9-0.9,1.2l-4.4,2.7
		l-7.8,4.8l-0.5,0.3v6.8l0,0l0,0l0.4-0.3l7.8-4.9l5.2-3.2c0.2-0.1,0.5-0.2,0.8-0.3c0.7-0.1,1.4,0.2,1.8,0.9c0.3,0.4,0.3,0.9,0.2,1.3
		v0c0,0,0,0,0,0c-0.1,0.5-0.4,1-0.8,1.3l-1.2,0.8l-6,3.7l-7.8,4.9l-0.5,0.3v6.7l0,0l0,0l0.4-0.3l7.8-4.9l6-3.8l2-1.3
		c0.9-0.6,2.1-0.3,2.6,0.6c0.3,0.4,0.3,0.9,0.2,1.3v0c0,0,0,0,0,0c-0.1,0.5-0.4,1-0.8,1.3l-4,2.5l-6,3.8l-1.8,1.2l-6.4,4v6.7l0,0
		l0,0l16.8-10.8l2.2-1.4c0.1-0.1,0.3-0.2,0.4-0.2c0.5-0.2,0.9-0.1,1.4,0.1c0.3,0.1,0.6,0.4,0.8,0.7c0.3,0.4,0.3,0.9,0.3,1.3
		c0,0,0,0,0,0c-0.1,0.5-0.4,1-0.8,1.3l-1.5,1l-19.5,12.5v0.8v5.9l0,0l0,0l14.7-9.5l2.3-1.5l4.8-3.1c0.9-0.6,2.1-0.3,2.6,0.6
		c0.3,0.4,0.3,0.9,0.3,1.3v0v0c0,0,0,0,0,0c0,0,0,0.1,0,0.1c0,0,0,0,0,0c0,0,0,0.1,0,0.1l-0.1,0l-9.9,2.4l-14.7,3.6l-3.8,0.9
		l-5.5,1.3l0,0l2,1.3l2.3,1.5h0l1.2,0.8v-4.8v-1.1V704l-11.3-7.2h0l-3.6-2.3h0l0,0l0,0l-0.3-0.2L158.9,687.3z"/>
	<g>
		<path class="st94" d="M721.1,591.3l-33.2,90.2l-4.5,12.3l-9.6,26.2c5.2-2.8,10.3-5.7,15.5-8.6c0,0,0,0,0,0
			c1.2-0.7,2.5-1.4,3.7-2.1c1.8-1,3.6-2.1,5.4-3.1c1.2-0.7,2.5-1.4,3.7-2.1c0.7-0.4,1.4-0.8,2.1-1.3c1.1-0.6,2.1-1.3,3.2-1.9
			c1.2-0.7,2.4-1.4,3.6-2.2c1.8-1.1,3.6-2.1,5.4-3.2c0.2-0.1,0.4-0.2,0.6-0.4h0c1.8-1.1,3.6-2.2,5.4-3.3c9.3-5.8,18.1-12.7,27-18.7
			L721.1,591.3z"/>
		<linearGradient id="SVGID_80_" gradientUnits="userSpaceOnUse" x1="720.7487" y1="603.4205" x2="719.0135" y2="683.2374">
			<stop  offset="0" style="stop-color:#FFFFFF"/>
			<stop  offset="1" style="stop-color:#FFFFFF;stop-opacity:0"/>
		</linearGradient>
		<path class="st95" d="M697.1,680.9c0.6-0.9,1.8-1.2,2.6-0.6l18.7,12v-6.7l-18-11.4c-0.9-0.6-1.2-1.7-0.6-2.6
			c0.6-0.9,1.7-1.2,2.6-0.6l15.9,10.1v-6.7l-15.2-9.5c-0.9-0.6-1.2-1.7-0.6-2.6c0.6-0.9,1.7-1.2,2.6-0.6l13.1,8.2v-6.8l-12.3-7.5
			c-0.9-0.5-1.2-1.7-0.6-2.6c0.6-0.9,1.7-1.2,2.6-0.6l10.4,6.3v-6.8l-9.5-5.6c-0.9-0.5-1.2-1.7-0.7-2.6c0.5-0.9,1.7-1.2,2.6-0.7
			l7.6,4.5v-6.8l-6.7-3.7c-0.9-0.5-1.2-1.7-0.7-2.6c0.5-0.9,1.7-1.2,2.6-0.7l4.8,2.7v-6.8l-3.8-1.8c-0.9-0.5-1.3-1.6-0.9-2.5
			c0.5-0.9,1.6-1.3,2.5-0.9l2.1,1v-6.9c0-1,0.9-1.9,1.9-1.9c1,0,1.9,0.9,1.9,1.9v7l2.4-1.2c0.9-0.5,2.1-0.1,2.5,0.9
			c0.5,0.9,0.1,2.1-0.9,2.5l-4,2v6.8l5.1-2.8c0.9-0.5,2.1-0.2,2.6,0.7c0.5,0.9,0.2,2.1-0.8,2.6l-6.9,3.9v6.8l7.9-4.6
			c0.9-0.5,2.1-0.2,2.6,0.7c0.5,0.9,0.2,2.1-0.7,2.6l-9.8,5.8v6.8l10.6-6.5c0.9-0.5,2.1-0.3,2.6,0.6c0.5,0.9,0.3,2.1-0.6,2.6
			l-12.6,7.7v6.8l13.4-8.4c0.9-0.6,2.1-0.3,2.6,0.6c0.6,0.9,0.3,2.1-0.6,2.6l-15.4,9.6v6.7l16.2-10.3c0.9-0.6,2.1-0.3,2.6,0.6
			c0.6,0.9,0.3,2.1-0.6,2.6l-18.3,11.5v6c-1.8,1.1-3.6,2.2-5.4,3.3h0c-0.2,0.1-0.4,0.3-0.6,0.4l-5-3.2l-0.1,0l-13.6-8.7
			C696.8,682.9,696.6,681.7,697.1,680.9z"/>
	</g>
	<linearGradient id="SVGID_81_" gradientUnits="userSpaceOnUse" x1="288.0567" y1="913.036" x2="608.8171" y2="16.2505">
		<stop  offset="0" style="stop-color:#754FF2;stop-opacity:0"/>
		<stop  offset="1" style="stop-color:#DA422B"/>
	</linearGradient>
	<path class="st96" d="M772.5,407.5c-0.4,10.7-3.2,22.2-8.4,33.3c-15.8,33.1-47.9,61.6-75.3,81.8c-24.2,17.9-51,34.9-73.7,55.5
		c-12.5,11.3-23.8,23.8-32.8,38c-6.5,10.3-11.6,21.4-15.7,32.9c0,0.1,0,0.1,0,0.1c-2.3,6.5-4.4,13.1-6.1,19.8
		c-2.3,8.8-4.2,17.7-6,26.7c-0.9,4.8-1.8,9.6-2.7,14.4c-3.8,20.6-7.3,41.4-13.6,60.8c-1,3.7-1.2,9.5-2.8,13c-0.4,0.8-0.8,1.5-1.4,2
		c-0.3,0.3-0.6,0.5-1,0.6h0c0,0,0,0,0,0c-2.1,0.8-5.1-0.2-8.1-1.1c0,0-0.1,0-0.1,0h0c-2.7-0.9-5.3-1.7-7.2-1c0,0,0,0,0,0
		c0,0,0,0,0,0c0,0-0.1,0-0.1,0c0,0-0.5-0.1-1.2-0.2c-0.1,0-0.3,0-0.4-0.1c-0.1,0-0.2,0-0.2,0c-0.1,0-0.2,0-0.2,0
		c-0.2,0-0.3-0.1-0.5-0.1c-1.3-0.3-2.7-0.5-2.7-0.5c-5.8-0.8-19.1-3-31.2-5c-1.8-0.3-3.6-0.6-5.3-0.9c-8-1.4-14.9-2.6-17.7-3.1
		c-1.1-0.2-2.2-0.4-3.3-0.6c-0.2,0-0.4-0.1-0.6-0.1c-16.7-3.3-34.8-7-52.9-10.9c-0.2-0.1-0.5-0.1-0.8-0.1
		c-25.9-5.5-51.9-11.3-73.9-16.2c-0.3-0.1-0.5-0.1-0.8-0.2c-1.1-0.3-2.3-0.5-3.4-0.8c-0.3-0.1-0.5-0.1-0.8-0.2
		c-1.8-0.4-3.6-0.8-5.4-1.2c-0.3-0.1-0.5-0.1-0.8-0.2c-0.1,0-0.1,0-0.2,0c-1.1-0.2-2.2-0.5-3.2-0.7c-0.3-0.1-0.5-0.1-0.7-0.2
		c0,0,0,0,0,0c-0.3-0.1-0.6-0.1-0.9-0.2c0,0,0,0,0,0c-1-0.2-2-0.4-3-0.7c0,0,0,0,0,0c-0.6-0.1-1.1-0.2-1.7-0.4
		c-0.5-0.1-1-0.2-1.5-0.3c-0.6-0.1-1.1-0.3-1.7-0.4c-0.2,0-0.5-0.1-0.7-0.1c-0.8-0.2-1.6-0.4-2.4-0.5c-1.1-0.3-2.3-0.5-3.4-0.8
		c-0.2,0-0.3-0.1-0.5-0.1c0,0,0,0-0.1,0c-0.6-0.1-1.1-0.2-1.6-0.4c-1.2-0.3-2.5-0.5-3.6-0.8c-4.5-1.1-8.6-2-12.4-2.9h0
		c-1.1-0.3-2.1-0.5-3.2-0.8c-0.8-0.2-1.6-0.4-2.3-0.6c-11.2-2.7-26.3-5.1-43.5-7.3c-0.1,0-0.2,0-0.3,0l-1.3-0.2l-1.3-0.2l-0.3,0v0
		l-2.5-0.3c-0.5-0.1-1-0.1-1.5-0.2c-1.9-0.2-3.9-0.5-5.9-0.7c-0.5-0.1-1-0.1-1.5-0.2c-0.2,0-0.3,0-0.5-0.1s-0.4,0-0.6-0.1
		c-0.2,0-0.4,0-0.6-0.1c-0.8-0.1-1.6-0.2-2.4-0.3c-1.2-0.1-2.4-0.2-3.6-0.4c-0.3,0-0.6-0.1-0.9-0.1c0,0,0,0,0,0
		c-0.4,0-0.7-0.1-1.1-0.1c-0.9-0.1-1.7-0.2-2.6-0.3c-0.8-0.1-1.5-0.2-2.3-0.2h0c-0.4,0-0.7-0.1-1.1-0.1c-0.8-0.1-1.5-0.2-2.3-0.2
		c-1-0.1-1.9-0.2-2.9-0.3c-0.9-0.1-1.7-0.2-2.6-0.2h0c-0.4,0-0.7-0.1-1.1-0.1c-0.2,0-0.5-0.1-0.8-0.1c-0.2,0-0.4,0-0.6-0.1
		c-0.2,0-0.3,0-0.5,0c-0.3,0-0.6,0-0.9-0.1c-0.2-0.2-0.4-0.4-0.6-0.7c-0.1-0.1-0.3-0.3-0.4-0.4c-0.2-0.2-0.3-0.3-0.5-0.5
		c-0.2-0.2-0.4-0.5-0.6-0.7c-0.6-0.6-1.1-1.2-1.7-1.8c0,0,0,0,0,0c-0.2-0.3-0.5-0.5-0.7-0.8c-1.6-1.8-3.2-3.6-4.7-5.4
		c-0.8-1-1.6-2-2.4-2.9c-0.1-0.2-0.3-0.3-0.4-0.5c-0.3-0.4-0.6-0.8-0.9-1.2l0,0c-0.4-0.5-0.8-1-1.2-1.5c-2.5-3.1-4.8-6.2-7.1-9.4
		c-0.5-0.7-1-1.4-1.5-2.1c-1.2-1.7-2.4-3.4-3.6-5.2c-0.4-0.6-0.8-1.2-1.2-1.8c-1.8-2.7-3.5-5.4-5.2-8.1c-0.4-0.6-0.7-1.2-1.1-1.8
		c-0.9-1.5-1.8-3-2.6-4.5c-1.7-2.9-3.3-5.8-4.8-8.8c-0.4-0.8-0.8-1.5-1.2-2.3c-0.5-0.9-0.9-1.8-1.4-2.8c-0.9-1.9-1.8-3.7-2.7-5.6v0
		c-0.2-0.4-0.4-0.8-0.6-1.2c0-0.1-0.1-0.1-0.1-0.2c-1.5-3.3-2.9-6.6-4.3-10c0-0.1-0.1-0.2-0.1-0.3c-0.1-0.2-0.2-0.4-0.3-0.7
		c-6.3-16-10.9-32.6-13.5-49.7c-0.3-1.9-0.6-3.8-0.8-5.8c-0.1-0.8-0.2-1.7-0.3-2.6c-0.2-1.7-0.4-3.3-0.5-5c0-0.4-0.1-0.8-0.1-1.2
		c-1.3-14-1.5-28-0.9-42c0.1-2.1,0.2-4.3,0.3-6.5c0-0.8,0.1-1.7,0.2-2.5c0-0.1,0-0.1,0-0.2c4-3.7,8.1-7.2,12.4-10.6
		c9.6-7.7,19.9-14.4,31.2-19.2c3.8-1.6,7.7-3,11.7-4.2c2.1-0.6,4.2-1.2,6.3-1.7c0.9-0.2,1.7-0.4,2.6-0.6c2.6-0.6,5.2-1.1,7.8-1.5
		c2-0.3,4-0.6,6-0.8c1.7-0.2,3.5-0.4,5.2-0.6c19.8-1.7,40.4,0,61,2.2c18.9,2,38,4.4,56.6,4.8c8.1,0.2,16.2-0.1,24.3-0.7
		c45.5-3.5,90-19.3,127-45.5c30.9-21.8,54.6-52.2,87.5-71.3c6.2-3.6,12.6-6.9,19.2-9.9c12.3-5.5,25.1-10,38.3-13.5
		c17.5-4.7,35.5-7.6,53.1-9c33.3-2.6,80.2,1.1,98.5,38.8C771.3,389.5,772.8,398.2,772.5,407.5z"/>
	<g>
		<path class="st8" d="M442.5,688.3c0.5-2.7,1.1-5.4,1.7-8.1c0.6-2.7,1.2-5.4,1.8-8c1.2-5.4,2.5-10.7,3.7-16
			c1.3-5.3,2.6-10.7,3.9-16c1.4-5.3,2.7-10.6,4.1-15.9l0.1,0.6c-2.5-5.1-4.6-10.3-6.5-15.6c-0.9-2.7-1.7-5.4-2.4-8.1
			c-0.7-2.7-1.3-5.5-1.7-8.3c0.7,2.7,1.4,5.4,2.3,8.1c0.9,2.6,1.9,5.3,2.9,7.9c1.1,2.6,2.1,5.2,3.3,7.7c1.2,2.5,2.4,5.1,3.6,7.5
			l0.2,0.3l-0.1,0.3c-1.3,5.3-2.6,10.7-3.9,16c-1.4,5.3-2.7,10.6-4.1,15.9c-1.4,5.3-2.8,10.6-4.3,15.9c-0.7,2.6-1.5,5.3-2.3,7.9
			C444.1,683,443.4,685.7,442.5,688.3z"/>
	</g>
</g>
</svg>
