<svg id="e0glyl51ca8671" xmlns="http://www.w3.org/2000/svg" xmlns:xlink="http://www.w3.org/1999/xlink" viewBox="0 0 300 320" shape-rendering="geometricPrecision" text-rendering="geometricPrecision"><style><![CDATA[#e0glyl51ca8672_to {animation: e0glyl51ca8672_to__to 10000ms linear infinite normal forwards}@keyframes e0glyl51ca8672_to__to { 0% {transform: translate(720px,223.270943px)} 100% {transform: translate(-420px,223.270943px)} }]]></style><g id="e0glyl51ca8672_to" transform="translate(720,223.270943)"><path id="e0glyl51ca8672" d="M0,256L48,229.300000C96,203,192,149,288,154.700000C384,160,480,224,576,218.700000C672,213,768,139,864,128C960,117,1056,171,1152,197.300000C1248,224,1344,224,1392,224L1440,224L1440,320L1392,320C1344,320,1248,320,1152,320C1056,320,960,320,864,320C768,320,672,320,576,320C480,320,384,320,288,320C192,320,96,320,48,320L0,320Z" transform="translate(-720,-223.270943)" fill="rgb(0,153,255)" stroke="none" stroke-width="1"/></g></svg>